# This file uses centimeters as units for non-parametric coordinates.

mtllib Air_Alarm_modded_UV_UNWRAPPED.mtl
g default
v 1513.170571 253.807495 18.388725
v 1514.780679 253.657257 18.388725
v 1516.541055 253.657257 18.388725
v 1518.151162 253.807495 18.388725
v 1512.478921 253.115784 19.312021
v 1514.600137 253.115784 19.312021
v 1516.721474 253.115784 19.312021
v 1518.842812 253.115784 19.312021
v 1511.290078 251.926941 20.365469
v 1513.829995 250.805176 20.365469
v 1517.491738 250.805176 20.365469
v 1520.031655 251.926941 20.365469
v 1511.465371 252.102356 24.027189
v 1513.829995 250.805176 24.027189
v 1517.491738 250.805176 24.027189
v 1519.856240 252.102356 24.027189
v 1510.168252 254.466888 24.027189
v 1512.957070 253.593933 24.027189
v 1518.364785 253.593933 24.027189
v 1521.153359 254.466888 24.027189
v 1510.168252 258.128632 24.027189
v 1512.957070 259.001587 24.027189
v 1518.364785 259.001587 24.027189
v 1521.153359 258.128632 24.027189
v 1511.465371 260.493164 24.027189
v 1513.829995 261.790344 24.027189
v 1517.491738 261.790344 24.027189
v 1519.856240 260.493164 24.027189
v 1511.290078 260.668579 20.365469
v 1513.829995 261.790344 20.365469
v 1517.491738 261.790344 20.365469
v 1520.031655 260.668579 20.365469
v 1512.478921 259.479706 19.312021
v 1514.600137 259.479706 19.312021
v 1516.721474 259.479706 19.312021
v 1518.842812 259.479706 19.312021
v 1513.170571 258.788025 18.388725
v 1514.780679 258.938293 18.388725
v 1516.541055 258.938293 18.388725
v 1518.151162 258.788025 18.388725
v 1513.020303 257.177948 18.388725
v 1514.600137 257.358398 9.313989
v 1516.721474 257.358398 9.313989
v 1518.301308 257.177948 18.388725
v 1513.020303 255.417572 18.388725
v 1514.600137 255.237122 9.313989
v 1516.721474 255.237122 9.313989
v 1518.301308 255.417572 18.388725
v 1518.842812 257.358398 19.312021
v 1518.842812 255.237122 19.312021
v 1521.153359 258.128632 20.365469
v 1521.153359 254.466888 20.365469
v 1512.478921 257.358398 19.312021
v 1512.478921 255.237122 19.312021
v 1510.168252 258.128632 20.365469
v 1510.168252 254.466888 20.365469
v 1514.437051 255.073975 23.649462
v 1516.884560 255.073975 23.649462
v 1516.884560 257.521545 23.649462
v 1514.437051 257.521545 23.649462
v 1516.627969 351.324860 18.388725
v 1518.238076 351.174591 18.388725
v 1519.998452 351.174591 18.388725
v 1521.608559 351.324860 18.388725
v 1515.936318 350.633179 19.312021
v 1518.057656 350.633179 19.312021
v 1520.178994 350.633179 19.312021
v 1522.300210 350.633179 19.312021
v 1514.747475 349.444305 20.365469
v 1517.287392 348.322540 20.365469
v 1520.949136 348.322540 20.365469
v 1523.489053 349.444305 20.365469
v 1514.922890 349.619720 24.027189
v 1517.287392 348.322540 24.027189
v 1520.949136 348.322540 24.027189
v 1523.313760 349.619720 24.027189
v 1513.625771 351.984253 24.027189
v 1516.414346 351.111298 24.027189
v 1521.822060 351.111298 24.027189
v 1524.610879 351.984253 24.027189
v 1513.625771 355.645996 24.027189
v 1516.414346 356.518982 24.027189
v 1521.822060 356.518982 24.027189
v 1524.610879 355.645996 24.027189
v 1514.922890 358.010529 24.027189
v 1517.287392 359.307709 24.027189
v 1520.949136 359.307709 24.027189
v 1523.313760 358.010529 24.027189
v 1514.747475 358.185944 20.365469
v 1517.287392 359.307709 20.365469
v 1520.949136 359.307709 20.365469
v 1523.489053 358.185944 20.365469
v 1515.936318 356.997070 19.312021
v 1518.057656 356.997070 19.312021
v 1520.178994 356.997070 19.312021
v 1522.300210 356.997070 19.312021
v 1516.627969 356.305389 18.388725
v 1518.238076 356.455658 18.388725
v 1519.998452 356.455658 18.388725
v 1521.608559 356.305389 18.388725
v 1516.477822 354.695312 18.388725
v 1518.057656 354.875763 9.313989
v 1520.178994 354.875763 9.313989
v 1521.758828 354.695312 18.388725
v 1516.477822 352.934937 18.388725
v 1518.057656 352.754486 9.313989
v 1520.178994 352.754486 9.313989
v 1521.758828 352.934937 18.388725
v 1522.300210 354.875763 19.312021
v 1522.300210 352.754486 19.312021
v 1524.610879 355.645996 20.365469
v 1524.610879 351.984253 20.365469
v 1515.936318 354.875763 19.312021
v 1515.936318 352.754486 19.312021
v 1513.625771 355.645996 20.365469
v 1513.625771 351.984253 20.365469
v 1517.894570 352.591339 23.649462
v 1520.342080 352.591339 23.649462
v 1520.342080 355.038910 23.649462
v 1517.894570 355.038910 23.649462
v 1514.533852 364.454803 -18.128164
v 1699.888467 362.236969 -17.310873
v 1514.533852 247.092468 -18.128164
v 1699.888467 249.310303 -17.310873
v 1530.906533 268.338776 -0.070226
v 1683.179238 268.338776 -0.070226
v 1683.179238 343.208527 -0.070226
v 1530.906533 343.208527 -0.070226
v 1761.346108 249.310303 -17.310873
v 1761.346108 362.236969 -17.310873
v 1452.402993 247.092468 -18.128162
v 1452.402993 364.454803 -18.128162
v 1507.192300 260.960205 19.759787
v 1507.192300 350.586975 19.759787
v 1459.744546 350.586975 19.759783
v 1459.744546 260.960205 19.759783
v 1704.513467 256.464966 19.759787
v 1704.513467 355.082428 19.759787
v 1756.721352 256.464966 19.759783
v 1756.721352 355.082428 19.759783
v 1514.533852 247.092468 15.971370
v 1514.533852 248.202057 18.650185
v 1514.533852 250.880890 19.759787
v 1699.551797 247.092468 15.971370
v 1699.551797 248.202057 18.650185
v 1699.551797 250.880890 19.759787
v 1514.533852 364.454803 15.971370
v 1514.533852 363.345215 18.650185
v 1514.533852 360.666351 19.759787
v 1699.551797 364.454803 15.971370
v 1699.551797 363.345215 18.650185
v 1699.551797 360.666351 19.759787
v 1761.682656 247.092468 15.971367
v 1760.573159 248.202057 18.650183
v 1757.894326 250.880890 19.759783
v 1761.682656 364.454803 15.971367
v 1760.573159 363.345215 18.650183
v 1757.894326 360.666351 19.759783
v 1452.402993 247.092468 15.971367
v 1453.512734 248.202057 18.650183
v 1456.191567 250.880890 19.759783
v 1452.402993 364.454803 15.971367
v 1453.512734 363.345215 18.650183
v 1456.191567 360.666351 19.759783
v 1530.906533 268.338776 9.845771
v 1520.992471 258.424652 19.759787
v 1683.179238 268.338776 9.845771
v 1693.093301 258.424652 19.759787
v 1683.179238 343.208527 9.845771
v 1693.093301 353.122528 19.759787
v 1530.906533 343.208527 9.845771
v 1520.992471 353.122528 19.759787
v 1704.513467 264.859619 19.759787
v 1704.513467 346.687622 19.759787
v 1756.721352 264.859619 19.759783
v 1756.721352 346.687622 19.759783
v 1507.192300 268.589661 19.759787
v 1507.192300 342.957550 19.759787
v 1459.744546 342.957550 19.759783
v 1459.744546 268.589661 19.759783
v 1704.513467 276.094391 19.759787
v 1704.513467 335.452820 19.759787
v 1756.721352 276.094391 19.759783
v 1756.721352 335.452820 19.759783
v 1507.192300 278.800171 19.759787
v 1507.192300 332.747040 19.759787
v 1459.744546 332.747040 19.759783
v 1459.744546 278.800171 19.759783
v 1704.513467 288.808044 19.759787
v 1704.513467 322.739227 19.759787
v 1756.721352 288.808044 19.759783
v 1756.721352 322.739227 19.759783
v 1507.192300 290.354736 19.759787
v 1507.192300 321.192474 19.759787
v 1459.744546 321.192474 19.759783
v 1459.744546 290.354736 19.759783
v 1704.513467 298.963989 19.759787
v 1704.513467 312.583344 19.759787
v 1756.721352 298.963989 19.759783
v 1756.721352 312.583344 19.759783
v 1507.192300 299.584778 19.759787
v 1507.192300 311.962524 19.759787
v 1459.744546 311.962524 19.759783
v 1459.744546 299.584778 19.759783
v 1704.796426 299.221344 15.832407
v 1704.796426 312.325989 15.832407
v 1756.438515 299.221344 15.832404
v 1756.438515 312.325989 15.832404
v 1505.209756 299.824036 16.649698
v 1505.209756 311.723267 16.649698
v 1461.727090 311.723267 16.649694
v 1461.727090 299.824036 16.649694
v 1704.796426 258.328552 15.832407
v 1756.438515 258.328552 15.832404
v 1756.438515 266.405975 15.832404
v 1704.796426 266.405975 15.832407
v 1704.796426 353.218781 15.832407
v 1756.438515 353.218781 15.832404
v 1704.796426 345.141296 15.832407
v 1756.438515 345.141296 15.832404
v 1505.209756 348.854523 16.649698
v 1461.727090 348.854523 16.649694
v 1461.727090 341.520050 16.649694
v 1505.209756 341.520050 16.649698
v 1505.209756 262.692657 16.649698
v 1461.727090 262.692657 16.649694
v 1505.209756 270.027130 16.649698
v 1461.727090 270.027130 16.649694
v 1704.796426 277.216125 15.832407
v 1756.438515 277.216125 15.832404
v 1756.438515 289.449280 15.832404
v 1704.796426 289.449280 15.832407
v 1704.796426 334.331116 15.832407
v 1756.438515 334.331116 15.832404
v 1704.796426 322.098022 15.832407
v 1756.438515 322.098022 15.832404
v 1505.209756 331.704285 16.649698
v 1461.727090 331.704285 16.649694
v 1461.727090 320.596405 16.649694
v 1505.209756 320.596405 16.649698
v 1505.209756 279.842926 16.649698
v 1461.727090 279.842926 16.649694
v 1505.209756 290.950806 16.649698
v 1461.727090 290.950806 16.649694
v 1694.631387 353.331726 18.388725
v 1696.241494 353.181458 18.388725
v 1698.001748 353.181458 18.388725
v 1699.611855 353.331726 18.388725
v 1693.939614 352.640015 19.312021
v 1696.060952 352.640015 19.312021
v 1698.182168 352.640015 19.312021
v 1700.303506 352.640015 19.312021
v 1692.750771 351.451141 20.365469
v 1695.290810 350.329407 20.365469
v 1698.952431 350.329407 20.365469
v 1701.492471 351.451141 20.365469
v 1692.926186 351.626587 24.027189
v 1695.290810 350.329407 24.027189
v 1698.952431 350.329407 24.027189
v 1701.316933 351.626587 24.027189
v 1691.628945 353.991119 24.027189
v 1694.417764 353.118134 24.027189
v 1699.825478 353.118134 24.027189
v 1702.614175 353.991119 24.027189
v 1691.628945 357.652832 24.027189
v 1694.417764 358.525818 24.027189
v 1699.825478 358.525818 24.027189
v 1702.614175 357.652832 24.027189
v 1692.926186 360.017395 24.027189
v 1695.290810 361.314575 24.027189
v 1698.952431 361.314575 24.027189
v 1701.316933 360.017395 24.027189
v 1692.750771 360.192810 20.365469
v 1695.290810 361.314575 20.365469
v 1698.952431 361.314575 20.365469
v 1701.492471 360.192810 20.365469
v 1693.939614 359.003937 19.312021
v 1696.060952 359.003937 19.312021
v 1698.182168 359.003937 19.312021
v 1700.303506 359.003937 19.312021
v 1694.631387 358.312256 18.388725
v 1696.241494 358.462524 18.388725
v 1698.001748 358.462524 18.388725
v 1699.611855 358.312256 18.388725
v 1694.481118 356.702148 18.388725
v 1696.060952 356.882629 9.313989
v 1698.182168 356.882629 9.313989
v 1699.762124 356.702148 18.388725
v 1694.481118 354.941803 18.388725
v 1696.060952 354.761322 9.313989
v 1698.182168 354.761322 9.313989
v 1699.762124 354.941803 18.388725
v 1700.303506 356.882629 19.312021
v 1700.303506 354.761322 19.312021
v 1702.614175 357.652832 20.365469
v 1702.614175 353.991119 20.365469
v 1693.939614 356.882629 19.312021
v 1693.939614 354.761322 19.312021
v 1691.628945 357.652832 20.365469
v 1691.628945 353.991119 20.365469
v 1695.897744 354.598175 23.649462
v 1698.345376 354.598175 23.649462
v 1698.345376 357.045776 23.649462
v 1695.897744 357.045776 23.649462
v 1695.291055 253.370636 18.388725
v 1696.901162 253.220398 18.388725
v 1698.661416 253.220398 18.388725
v 1700.271523 253.370636 18.388725
v 1694.599404 252.678955 19.312021
v 1696.720620 252.678955 19.312021
v 1698.841958 252.678955 19.312021
v 1700.963174 252.678955 19.312021
v 1693.410439 251.490082 20.365469
v 1695.950478 250.368317 20.365469
v 1699.612099 250.368317 20.365469
v 1702.152139 251.490082 20.365469
v 1693.585854 251.665497 24.027189
v 1695.950478 250.368317 24.027189
v 1699.612099 250.368317 24.027189
v 1701.976723 251.665497 24.027189
v 1692.288613 254.030029 24.027189
v 1695.077431 253.157074 24.027189
v 1700.485146 253.157074 24.027189
v 1703.273965 254.030029 24.027189
v 1692.288613 257.691772 24.027189
v 1695.077431 258.564758 24.027189
v 1700.485146 258.564758 24.027189
v 1703.273965 257.691772 24.027189
v 1693.585854 260.056305 24.027189
v 1695.950478 261.353485 24.027189
v 1699.612099 261.353485 24.027189
v 1701.976723 260.056305 24.027189
v 1693.410439 260.231750 20.365469
v 1695.950478 261.353485 20.365469
v 1699.612099 261.353485 20.365469
v 1702.152139 260.231750 20.365469
v 1694.599404 259.042877 19.312021
v 1696.720620 259.042877 19.312021
v 1698.841958 259.042877 19.312021
v 1700.963174 259.042877 19.312021
v 1695.291055 258.351166 18.388725
v 1696.901162 258.501434 18.388725
v 1698.661416 258.501434 18.388725
v 1700.271523 258.351166 18.388725
v 1695.140786 256.741089 18.388725
v 1696.720620 256.921570 9.313989
v 1698.841958 256.921570 9.313989
v 1700.421792 256.741089 18.388725
v 1695.140786 254.980743 18.388725
v 1696.720620 254.800262 9.313989
v 1698.841958 254.800262 9.313989
v 1700.421792 254.980743 18.388725
v 1700.963174 256.921570 19.312021
v 1700.963174 254.800262 19.312021
v 1703.273965 257.691772 20.365469
v 1703.273965 254.030029 20.365469
v 1694.599404 256.921570 19.312021
v 1694.599404 254.800262 19.312021
v 1692.288613 257.691772 20.365469
v 1692.288613 254.030029 20.365469
v 1696.557412 254.637115 23.649462
v 1699.005166 254.637115 23.649462
v 1699.005166 257.084717 23.649462
v 1696.557412 257.084717 23.649462
vt 0.864911 0.785969
vt 0.922744 0.788861
vt 0.922744 0.985492
vt 0.864911 0.988384
vt 0.862019 0.785969
vt 0.862019 0.985492
vt 0.792620 0.785969
vt 0.853344 0.785969
vt 0.853344 0.988384
vt 0.792620 0.988384
vt 0.856236 0.785969
vt 0.856236 0.985492
vt 0.717437 0.803319
vt 0.717437 0.930551
vt 0.700088 0.930551
vt 0.700088 0.803319
vt 0.734787 0.785969
vt 0.734787 0.947901
vt 0.755029 0.930551
vt 0.755029 0.803319
vt 0.772378 0.803319
vt 0.772378 0.930551
vt 0.737679 0.785969
vt 0.737679 0.947901
vt 0.789728 0.956576
vt 0.789728 0.785969
vt 0.789728 0.800428
vt 0.789728 0.942118
vt 0.783945 0.785969
vt 0.783945 0.956576
vt 0.783945 0.942118
vt 0.783945 0.800428
vt 0.778162 0.953684
vt 0.778162 0.939226
vt 0.778162 0.803319
vt 0.778162 0.788861
vt 0.694304 0.785969
vt 0.694304 0.939226
vt 0.694304 0.927660
vt 0.694304 0.797536
vt 0.694304 0.910310
vt 0.694304 0.814886
vt 0.685629 0.939226
vt 0.685629 0.785969
vt 0.685629 0.797536
vt 0.685629 0.927660
vt 0.691413 0.788861
vt 0.691413 0.800427
vt 0.691413 0.924768
vt 0.691413 0.936335
vt 0.679846 0.927660
vt 0.679846 0.785969
vt 0.679846 0.803319
vt 0.679846 0.907418
vt 0.676954 0.788861
vt 0.676954 0.930551
vt 0.676954 0.910310
vt 0.676954 0.809102
vt 0.671171 0.916093
vt 0.671171 0.788861
vt 0.671171 0.806211
vt 0.671171 0.898743
vt 0.668279 0.890068
vt 0.668279 0.788861
vt 0.668279 0.809102
vt 0.668279 0.869827
vt 0.662496 0.788861
vt 0.662496 0.890068
vt 0.662496 0.869827
vt 0.662496 0.809102
vt 0.656713 0.890068
vt 0.656713 0.866935
vt 0.656713 0.811994
vt 0.656713 0.791753
vt 0.650930 0.788861
vt 0.650930 0.881393
vt 0.650930 0.861152
vt 0.650930 0.809102
vt 0.648038 0.881393
vt 0.648038 0.861152
vt 0.648038 0.809102
vt 0.648038 0.791753
vt 0.636471 0.881393
vt 0.636471 0.788861
vt 0.636471 0.809102
vt 0.636471 0.861152
vt 0.642255 0.791753
vt 0.642255 0.809102
vt 0.642255 0.861152
vt 0.642255 0.881393
vt 0.662496 0.892960
vt 0.662496 0.947901
vt 0.662496 0.930551
vt 0.662496 0.910310
vt 0.668279 0.973926
vt 0.668279 0.918985
vt 0.668279 0.936335
vt 0.668279 0.956576
vt 0.674063 0.956576
vt 0.674063 0.933443
vt 0.682738 0.933443
vt 0.682738 0.956576
vt 0.691413 0.942118
vt 0.691413 0.968143
vt 0.685629 0.965251
vt 0.685629 0.945009
vt 0.720329 0.965251
vt 0.720329 0.950793
vt 0.726112 0.956576
vt 0.726112 0.968143
vt 0.731896 0.968143
vt 0.731896 0.953684
vt 0.737679 0.950793
vt 0.737679 0.965251
vt 0.697196 0.973926
vt 0.697196 0.950793
vt 0.702979 0.953684
vt 0.702979 0.973926
vt 0.708762 0.973926
vt 0.708762 0.953684
vt 0.714546 0.950793
vt 0.714546 0.973926
vt 0.338633 0.678979
vt 0.338633 0.358007
vt 0.393574 0.358007
vt 0.396465 0.678979
vt 0.332849 0.678979
vt 0.332849 0.358007
vt 0.338633 0.251016
vt 0.393574 0.251016
vt 0.396465 0.785969
vt 0.338633 0.785969
vt 0.332849 0.783078
vt 0.332849 0.253908
vt 0.402249 0.678979
vt 0.402249 0.358007
vt 0.460081 0.358007
vt 0.460081 0.678979
vt 0.402249 0.251016
vt 0.460081 0.251016
vt 0.465865 0.678979
vt 0.465865 0.358007
vt 0.460081 0.785969
vt 0.402249 0.785969
vt 0.465865 0.253908
vt 0.465865 0.783078
vt 0.899611 0.531505
vt 0.899611 0.268366
vt 0.916960 0.268366
vt 0.916960 0.531505
vt 0.882261 0.548855
vt 0.882261 0.251016
vt 0.940093 0.268366
vt 0.940093 0.531505
vt 0.922744 0.531505
vt 0.922744 0.268366
vt 0.957443 0.251016
vt 0.957443 0.548855
vt 0.532372 0.878502
vt 0.532372 0.788861
vt 0.541047 0.788861
vt 0.541047 0.878502
vt 0.529481 0.788861
vt 0.529481 0.878502
vt 0.523697 0.878502
vt 0.523697 0.788861
vt 0.477431 0.881393
vt 0.477431 0.965251
vt 0.474540 0.962359
vt 0.474540 0.887177
vt 0.483214 0.965251
vt 0.483214 0.881393
vt 0.488998 0.884285
vt 0.488998 0.959468
vt 0.512131 0.878502
vt 0.512131 0.788861
vt 0.517914 0.788861
vt 0.517914 0.878502
vt 0.506348 0.788861
vt 0.506348 0.878502
vt 0.500564 0.878502
vt 0.500564 0.788861
vt 0.494781 0.788861
vt 0.494781 0.878502
vt 0.488998 0.878502
vt 0.488998 0.788861
vt 0.477431 0.878502
vt 0.477431 0.788861
vt 0.483214 0.788861
vt 0.483214 0.878502
vt 0.497673 0.881393
vt 0.497673 0.965251
vt 0.491889 0.959468
vt 0.491889 0.884285
vt 0.503456 0.965251
vt 0.503456 0.881393
vt 0.509239 0.884285
vt 0.509239 0.959468
vt 0.512131 0.965251
vt 0.512131 0.881393
vt 0.517914 0.884285
vt 0.517914 0.959468
vt 0.529481 0.881393
vt 0.529481 0.965251
vt 0.523697 0.959468
vt 0.523697 0.884285
vt 0.465865 0.878502
vt 0.465865 0.788861
vt 0.471648 0.788861
vt 0.471648 0.878502
vt 0.462973 0.788861
vt 0.462973 0.878502
vt 0.454298 0.878502
vt 0.454298 0.788861
vt 0.451406 0.788861
vt 0.451406 0.878502
vt 0.442732 0.878502
vt 0.442732 0.788861
vt 0.431165 0.878502
vt 0.431165 0.788861
vt 0.439840 0.788861
vt 0.439840 0.878502
vt 0.538156 0.881393
vt 0.538156 0.965251
vt 0.532372 0.959468
vt 0.532372 0.884285
vt 0.543939 0.965251
vt 0.543939 0.881393
vt 0.546831 0.884285
vt 0.546831 0.959468
vt 0.552614 0.965251
vt 0.552614 0.881393
vt 0.558397 0.884285
vt 0.558397 0.959468
vt 0.567072 0.881393
vt 0.567072 0.965251
vt 0.561289 0.959468
vt 0.561289 0.884285
vt 0.831640 0.232035
vt 0.423978 0.232035
vt 0.423977 0.030921
vt 0.831640 0.030921
vt 0.471648 0.678979
vt 0.474540 0.358007
vt 0.668279 0.358007
vt 0.674063 0.678979
vt 0.474540 0.251016
vt 0.668279 0.251016
vt 0.674063 0.785969
vt 0.471648 0.785969
vt 0.428273 0.878502
vt 0.405140 0.878502
vt 0.405140 0.788861
vt 0.428273 0.788861
vt 0.358874 0.884285
vt 0.379116 0.884285
vt 0.379116 0.959468
vt 0.358874 0.959468
vt 0.358874 0.881393
vt 0.379116 0.881393
vt 0.379116 0.962359
vt 0.358874 0.962359
vt 0.682738 0.676087
vt 0.873586 0.676087
vt 0.856236 0.690545
vt 0.700088 0.690545
vt 0.697196 0.664520
vt 0.859128 0.664520
vt 0.873586 0.777294
vt 0.856236 0.771511
vt 0.682738 0.777294
vt 0.700088 0.771511
vt 0.682738 0.358007
vt 0.697196 0.366682
vt 0.873586 0.358007
vt 0.859128 0.366682
vt 0.879369 0.676087
vt 0.879369 0.783078
vt 0.679846 0.676087
vt 0.679846 0.783078
vt 0.679846 0.358007
vt 0.879369 0.358007
vt 0.679846 0.251016
vt 0.682738 0.256799
vt 0.694304 0.349332
vt 0.864911 0.349332
vt 0.873586 0.256799
vt 0.879369 0.251016
vt 0.694304 0.256799
vt 0.864911 0.256799
vt 0.387790 0.878502
vt 0.387790 0.788861
vt 0.399357 0.788861
vt 0.399357 0.878502
vt 0.382007 0.788861
vt 0.382007 0.878502
vt 0.367549 0.878502
vt 0.367549 0.788861
vt 0.584422 0.884285
vt 0.584422 0.959468
vt 0.572855 0.959468
vt 0.572855 0.884285
vt 0.575747 0.881393
vt 0.587314 0.881393
vt 0.595989 0.959468
vt 0.595989 0.884285
vt 0.610447 0.884285
vt 0.610447 0.959468
vt 0.593097 0.881393
vt 0.607555 0.881393
vt 0.613338 0.878502
vt 0.613338 0.788861
vt 0.633580 0.788861
vt 0.633580 0.878502
vt 0.607555 0.788861
vt 0.607555 0.878502
vt 0.590205 0.878502
vt 0.590205 0.788861
vt 0.402249 0.881393
vt 0.402249 0.962359
vt 0.384899 0.962359
vt 0.384899 0.881393
vt 0.408032 0.962359
vt 0.408032 0.881393
vt 0.425382 0.881393
vt 0.425382 0.962359
vt 0.341524 0.878502
vt 0.341524 0.788861
vt 0.364657 0.788861
vt 0.364657 0.878502
vt 0.353091 0.881393
vt 0.353091 0.971034
vt 0.332849 0.971034
vt 0.332849 0.881393
vt 0.633580 0.884285
vt 0.633580 0.959468
vt 0.616230 0.959468
vt 0.616230 0.884285
vt 0.639363 0.968143
vt 0.639363 0.892960
vt 0.659605 0.892960
vt 0.659605 0.968143
vt 0.567072 0.878502
vt 0.567072 0.788861
vt 0.584422 0.788861
vt 0.584422 0.878502
vt 0.561289 0.788861
vt 0.561289 0.878502
vt 0.543939 0.878502
vt 0.543939 0.788861
vt 0.445623 0.881393
vt 0.445623 0.965251
vt 0.431165 0.965251
vt 0.431165 0.881393
vt 0.451406 0.965251
vt 0.451406 0.881393
vt 0.468756 0.881393
vt 0.468756 0.965251
vt 0.090129 0.156542
vt 0.090984 0.199530
vt 0.080935 0.199530
vt 0.081790 0.156542
vt 0.097756 0.156542
vt 0.098468 0.156542
vt 0.073451 0.156542
vt 0.074163 0.156542
vt 0.080935 0.152168
vt 0.090984 0.152168
vt 0.101033 0.152168
vt 0.070886 0.152168
vt 0.123127 0.152168
vt 0.122272 0.195156
vt 0.113933 0.195156
vt 0.113078 0.152168
vt 0.130611 0.195156
vt 0.129899 0.195156
vt 0.123127 0.199530
vt 0.113078 0.199530
vt 0.106306 0.195156
vt 0.105594 0.195156
vt 0.133176 0.199530
vt 0.103029 0.199530
vt 0.056038 0.267731
vt 0.056038 0.279763
vt 0.038692 0.278932
vt 0.038692 0.267731
vt 0.056038 0.250385
vt 0.038692 0.250385
vt 0.056038 0.238353
vt 0.038692 0.239184
vt 0.058131 0.284440
vt 0.058131 0.272408
vt 0.075477 0.272408
vt 0.075477 0.283609
vt 0.058131 0.255062
vt 0.075477 0.255062
vt 0.058131 0.243030
vt 0.075477 0.243861
vt 0.218700 0.156541
vt 0.219555 0.199529
vt 0.209507 0.199529
vt 0.210361 0.156541
vt 0.226328 0.156541
vt 0.227040 0.156541
vt 0.202022 0.156541
vt 0.202734 0.156541
vt 0.209507 0.152167
vt 0.219555 0.152167
vt 0.229604 0.152167
vt 0.199458 0.152167
vt 0.251698 0.152167
vt 0.250843 0.195155
vt 0.242504 0.195155
vt 0.241649 0.152167
vt 0.259183 0.195155
vt 0.258471 0.195155
vt 0.251698 0.199529
vt 0.241649 0.199529
vt 0.234877 0.195155
vt 0.234165 0.195155
vt 0.261747 0.199529
vt 0.231601 0.199529
vt 0.133641 0.278360
vt 0.133641 0.290392
vt 0.116294 0.289561
vt 0.116294 0.278360
vt 0.133641 0.261014
vt 0.116294 0.261014
vt 0.133641 0.248981
vt 0.116294 0.249812
vt 0.135682 0.290392
vt 0.135682 0.278360
vt 0.153028 0.278360
vt 0.153028 0.289561
vt 0.135682 0.261014
vt 0.153028 0.261014
vt 0.135682 0.248981
vt 0.153028 0.249812
vt 0.256777 0.204948
vt 0.257632 0.247936
vt 0.247583 0.247936
vt 0.248438 0.204948
vt 0.264404 0.204948
vt 0.265116 0.204948
vt 0.240099 0.204948
vt 0.240811 0.204948
vt 0.247583 0.200574
vt 0.257632 0.200574
vt 0.267681 0.200574
vt 0.237534 0.200574
vt 0.225879 0.200574
vt 0.225024 0.243562
vt 0.216685 0.243562
vt 0.215830 0.200574
vt 0.233363 0.243562
vt 0.232651 0.243562
vt 0.225879 0.247936
vt 0.215830 0.247936
vt 0.209058 0.243562
vt 0.208346 0.243562
vt 0.235928 0.247936
vt 0.205781 0.247936
vt 0.211192 0.278360
vt 0.211192 0.290392
vt 0.193845 0.289561
vt 0.193845 0.278360
vt 0.211192 0.261014
vt 0.193845 0.261014
vt 0.211192 0.248981
vt 0.193845 0.249812
vt 0.213233 0.290391
vt 0.213233 0.278358
vt 0.230579 0.278358
vt 0.230579 0.289560
vt 0.213233 0.261013
vt 0.230579 0.261013
vt 0.213233 0.248980
vt 0.230579 0.249811
vt 0.129767 0.204948
vt 0.130622 0.247937
vt 0.120573 0.247937
vt 0.121428 0.204948
vt 0.137394 0.204948
vt 0.138106 0.204948
vt 0.113089 0.204948
vt 0.113801 0.204948
vt 0.120573 0.200575
vt 0.130622 0.200575
vt 0.140671 0.200575
vt 0.110524 0.200575
vt 0.098869 0.200575
vt 0.098014 0.243563
vt 0.089675 0.243563
vt 0.088820 0.200575
vt 0.106353 0.243563
vt 0.105641 0.243563
vt 0.098869 0.247937
vt 0.088820 0.247937
vt 0.082048 0.243563
vt 0.081336 0.243563
vt 0.108918 0.247937
vt 0.078771 0.247937
vt 0.288743 0.278359
vt 0.288743 0.290391
vt 0.271397 0.289560
vt 0.271397 0.278359
vt 0.288743 0.261013
vt 0.271397 0.261013
vt 0.288743 0.248981
vt 0.271397 0.249812
vt 0.282087 0.332846
vt 0.282087 0.320814
vt 0.299433 0.320814
vt 0.299433 0.332015
vt 0.282087 0.303468
vt 0.299433 0.303468
vt 0.282087 0.291436
vt 0.299433 0.292267
vt 0.059819 0.241985
vt 0.059819 0.229953
vt 0.077165 0.229953
vt 0.077165 0.241154
vt 0.059819 0.212607
vt 0.077165 0.212607
vt 0.059819 0.200575
vt 0.077165 0.201406
vt 0.040866 0.236477
vt 0.040866 0.225276
vt 0.058213 0.225276
vt 0.058213 0.237308
vt 0.040866 0.207930
vt 0.058213 0.207930
vt 0.040866 0.196729
vt 0.058213 0.195898
vt 0.049596 0.151865
vt 0.057935 0.151865
vt 0.058790 0.194853
vt 0.048741 0.194853
vt 0.048741 0.147491
vt 0.058790 0.147491
vt 0.068839 0.147491
vt 0.065562 0.151865
vt 0.038692 0.147491
vt 0.041969 0.151865
vt 0.064758 0.099084
vt 0.074807 0.099084
vt 0.073952 0.142072
vt 0.065613 0.142072
vt 0.074807 0.146446
vt 0.064758 0.146446
vt 0.081579 0.142072
vt 0.084856 0.146446
vt 0.057985 0.142072
vt 0.054709 0.146446
vt 0.077519 0.290391
vt 0.077519 0.278359
vt 0.094865 0.278359
vt 0.094865 0.289560
vt 0.077519 0.261013
vt 0.094865 0.261013
vt 0.077519 0.248982
vt 0.094865 0.249812
vt 0.096907 0.289560
vt 0.096907 0.278359
vt 0.114253 0.278359
vt 0.114253 0.290391
vt 0.096907 0.261013
vt 0.114253 0.261013
vt 0.096907 0.249812
vt 0.114253 0.248982
vt 0.178218 0.156542
vt 0.186558 0.156542
vt 0.187413 0.199530
vt 0.177364 0.199530
vt 0.177364 0.152168
vt 0.187413 0.152168
vt 0.197461 0.152168
vt 0.194185 0.156542
vt 0.167315 0.152168
vt 0.170591 0.156542
vt 0.145221 0.152168
vt 0.155270 0.152168
vt 0.154415 0.195156
vt 0.146076 0.195156
vt 0.155270 0.199530
vt 0.145221 0.199530
vt 0.162042 0.195156
vt 0.165318 0.199530
vt 0.138448 0.195156
vt 0.135172 0.199530
vt 0.155070 0.290392
vt 0.155070 0.278360
vt 0.172416 0.278360
vt 0.172416 0.289561
vt 0.155070 0.261014
vt 0.172416 0.261014
vt 0.155070 0.248982
vt 0.172416 0.249813
vt 0.174458 0.289561
vt 0.174458 0.278360
vt 0.191804 0.278360
vt 0.191804 0.290392
vt 0.174458 0.261014
vt 0.191804 0.261014
vt 0.174458 0.249813
vt 0.191804 0.248982
vt 0.280191 0.204948
vt 0.288530 0.204948
vt 0.289384 0.247936
vt 0.279336 0.247936
vt 0.279336 0.200574
vt 0.289384 0.200574
vt 0.299433 0.200574
vt 0.296157 0.204948
vt 0.269287 0.200574
vt 0.272564 0.204948
vt 0.273793 0.152167
vt 0.283841 0.152167
vt 0.282986 0.195155
vt 0.274647 0.195155
vt 0.283841 0.199529
vt 0.273793 0.199529
vt 0.290614 0.195155
vt 0.293890 0.199529
vt 0.267020 0.195155
vt 0.263743 0.199529
vt 0.232621 0.290391
vt 0.232621 0.278359
vt 0.249967 0.278359
vt 0.249967 0.289560
vt 0.232621 0.261013
vt 0.249967 0.261013
vt 0.232621 0.248981
vt 0.249967 0.249811
vt 0.252009 0.289560
vt 0.252009 0.278359
vt 0.269355 0.278359
vt 0.269355 0.290391
vt 0.252009 0.261013
vt 0.269355 0.261013
vt 0.252009 0.249812
vt 0.269355 0.248981
vt 0.153180 0.204948
vt 0.161519 0.204948
vt 0.162374 0.247937
vt 0.152325 0.247937
vt 0.152325 0.200575
vt 0.162374 0.200575
vt 0.172423 0.200575
vt 0.169146 0.204948
vt 0.142277 0.200575
vt 0.145553 0.204948
vt 0.184078 0.200575
vt 0.194127 0.200575
vt 0.193272 0.243563
vt 0.184933 0.243563
vt 0.194127 0.247937
vt 0.184078 0.247937
vt 0.200899 0.243563
vt 0.204175 0.247937
vt 0.177305 0.243563
vt 0.174029 0.247937
vt 0.049638 0.087093
vt 0.059687 0.087093
vt 0.056039 0.098039
vt 0.044006 0.092725
vt 0.069736 0.087093
vt 0.073385 0.098039
vt 0.049638 0.077044
vt 0.038692 0.080693
vt 0.079785 0.087093
vt 0.085417 0.092725
vt 0.049638 0.066996
vt 0.038692 0.063347
vt 0.079785 0.077044
vt 0.090730 0.080693
vt 0.049638 0.056947
vt 0.044006 0.051315
vt 0.079785 0.066996
vt 0.090730 0.063347
vt 0.056039 0.046001
vt 0.059687 0.056947
vt 0.079785 0.056947
vt 0.085417 0.051315
vt 0.073385 0.046001
vt 0.069736 0.056947
vt 0.098970 0.052146
vt 0.110171 0.046001
vt 0.106036 0.059212
vt 0.092825 0.063347
vt 0.127517 0.046001
vt 0.131653 0.059212
vt 0.106036 0.084828
vt 0.092825 0.080693
vt 0.138718 0.052146
vt 0.144863 0.063347
vt 0.124641 0.066223
vt 0.113047 0.066223
vt 0.113047 0.077817
vt 0.110171 0.098039
vt 0.098970 0.091894
vt 0.144863 0.080693
vt 0.131653 0.084828
vt 0.124641 0.077817
vt 0.127517 0.098039
vt 0.138718 0.091894
vt 0.270433 0.301485
vt 0.270433 0.291436
vt 0.280481 0.291436
vt 0.280481 0.301485
vt 0.157852 0.087093
vt 0.167901 0.087093
vt 0.164252 0.098039
vt 0.152220 0.092725
vt 0.177950 0.087093
vt 0.181598 0.098039
vt 0.157852 0.077044
vt 0.146907 0.080693
vt 0.187998 0.087093
vt 0.193630 0.092725
vt 0.157852 0.066996
vt 0.146907 0.063347
vt 0.187998 0.077044
vt 0.198945 0.080693
vt 0.157852 0.056947
vt 0.152220 0.051315
vt 0.187998 0.066996
vt 0.198945 0.063347
vt 0.164252 0.046001
vt 0.167901 0.056947
vt 0.187998 0.056947
vt 0.193630 0.051315
vt 0.181598 0.046001
vt 0.177950 0.056947
vt 0.207133 0.052146
vt 0.218334 0.046001
vt 0.214198 0.059211
vt 0.200989 0.063347
vt 0.235680 0.046001
vt 0.239816 0.059211
vt 0.214198 0.084828
vt 0.200989 0.080693
vt 0.246882 0.052146
vt 0.253027 0.063347
vt 0.232805 0.066223
vt 0.221211 0.066223
vt 0.221211 0.077817
vt 0.218334 0.098039
vt 0.207133 0.091894
vt 0.253027 0.080693
vt 0.239816 0.084828
vt 0.232805 0.077817
vt 0.235680 0.098039
vt 0.246882 0.091894
vt 0.258777 0.301485
vt 0.258777 0.291436
vt 0.268826 0.291436
vt 0.268826 0.301485
vt 0.288488 0.140176
vt 0.288488 0.130127
vt 0.299433 0.133775
vt 0.294120 0.145808
vt 0.288488 0.120079
vt 0.299433 0.116430
vt 0.278439 0.140176
vt 0.282088 0.151122
vt 0.288488 0.110029
vt 0.294120 0.104397
vt 0.268390 0.140176
vt 0.264741 0.151122
vt 0.278439 0.110029
vt 0.282088 0.099084
vt 0.258341 0.140176
vt 0.252709 0.145808
vt 0.268390 0.110029
vt 0.264741 0.099084
vt 0.247395 0.133775
vt 0.258341 0.130127
vt 0.258341 0.110029
vt 0.252709 0.104397
vt 0.247395 0.116430
vt 0.258341 0.120079
vt 0.199895 0.144977
vt 0.193751 0.133775
vt 0.206961 0.137911
vt 0.211097 0.151122
vt 0.193751 0.116430
vt 0.206961 0.112294
vt 0.232578 0.137911
vt 0.228443 0.151122
vt 0.199895 0.105229
vt 0.211097 0.099084
vt 0.213972 0.119305
vt 0.213972 0.130900
vt 0.225567 0.130900
vt 0.245789 0.133775
vt 0.239644 0.144977
vt 0.228443 0.099084
vt 0.232578 0.112294
vt 0.225567 0.119305
vt 0.245789 0.116430
vt 0.239644 0.105229
vt 0.247123 0.291436
vt 0.257171 0.291436
vt 0.257171 0.301485
vt 0.247123 0.301485
vt 0.181198 0.140177
vt 0.181198 0.130128
vt 0.192144 0.133776
vt 0.186830 0.145809
vt 0.181198 0.120079
vt 0.192144 0.116431
vt 0.171150 0.140177
vt 0.174798 0.151123
vt 0.181198 0.110031
vt 0.186830 0.104398
vt 0.161101 0.140177
vt 0.157452 0.151123
vt 0.171150 0.110031
vt 0.174798 0.099084
vt 0.151052 0.140177
vt 0.145420 0.145809
vt 0.161101 0.110031
vt 0.157452 0.099084
vt 0.140106 0.133776
vt 0.151052 0.130128
vt 0.151052 0.110031
vt 0.145420 0.104398
vt 0.140106 0.116431
vt 0.151052 0.120079
vt 0.092607 0.144978
vt 0.086462 0.133776
vt 0.099673 0.137912
vt 0.103808 0.151123
vt 0.086462 0.116431
vt 0.099673 0.112295
vt 0.125290 0.137912
vt 0.121154 0.151123
vt 0.092607 0.105229
vt 0.103808 0.099084
vt 0.106684 0.119306
vt 0.106684 0.130901
vt 0.118279 0.130901
vt 0.138500 0.133776
vt 0.132356 0.144978
vt 0.121154 0.099084
vt 0.125290 0.112295
vt 0.118279 0.119306
vt 0.138500 0.116431
vt 0.132356 0.105229
vt 0.235467 0.301485
vt 0.235467 0.291436
vt 0.245516 0.291436
vt 0.245516 0.301485
vn -0.033171 -0.823855 -0.565829
vn -0.015160 -0.845555 -0.533673
vn -0.033407 -0.547088 -0.836408
vn -0.101341 -0.529712 -0.842102
vn 0.015161 -0.845549 -0.533682
vn 0.033405 -0.547089 -0.836408
vn 0.033171 -0.823846 -0.565843
vn 0.101337 -0.529718 -0.842099
vn -0.170690 -0.930365 -0.324477
vn -0.392431 -0.877518 -0.275610
vn 0.170692 -0.930365 -0.324478
vn 0.392433 -0.877514 -0.275620
vn -0.194041 -0.980893 0.014069
vn -0.442106 -0.896390 0.032055
vn 0.194043 -0.980892 0.014072
vn 0.442115 -0.896385 0.032062
vn 0.000001 0.000000 1.000000
vn 0.000000 0.000000 1.000000
vn 0.000000 0.000000 1.000000
vn 0.000000 0.000000 1.000000
vn 0.000000 0.000000 1.000000
vn 0.000000 0.000000 1.000000
vn 0.000000 0.000000 1.000000
vn 0.000000 0.000000 1.000000
vn 0.000000 0.000000 1.000000
vn 0.000000 0.000000 1.000000
vn 0.000000 0.000000 1.000000
vn 0.000000 0.000000 1.000000
vn 0.000000 0.000000 1.000000
vn 0.000000 0.000000 1.000000
vn 0.000000 0.000000 1.000000
vn 0.000000 0.000000 1.000000
vn 0.000000 0.000000 1.000000
vn 0.000001 0.000000 1.000000
vn 0.000000 0.000000 1.000000
vn 0.000000 0.000000 1.000000
vn -0.442106 0.896390 0.032053
vn -0.194041 0.980893 0.014068
vn -0.170690 0.930364 -0.324482
vn -0.392430 0.877517 -0.275613
vn 0.194043 0.980892 0.014072
vn 0.170691 0.930363 -0.324483
vn 0.442115 0.896385 0.032062
vn 0.392433 0.877513 -0.275622
vn -0.033407 0.547086 -0.836409
vn -0.101341 0.529711 -0.842102
vn 0.033406 0.547087 -0.836409
vn 0.101339 0.529716 -0.842099
vn -0.015163 0.845572 -0.533646
vn -0.033178 0.823862 -0.565819
vn 0.015164 0.845568 -0.533653
vn 0.033177 0.823855 -0.565829
vn -0.690147 0.690229 -0.217442
vn -0.285202 0.936664 -0.203275
vn -0.653332 0.653327 -0.382519
vn -0.936652 0.285243 -0.203272
vn 0.285214 0.936659 -0.203283
vn 0.653332 0.653327 -0.382521
vn 0.690187 0.690184 -0.217457
vn 0.936661 0.285212 -0.203275
vn -0.653332 -0.653329 -0.382516
vn -0.936651 -0.285244 -0.203275
vn 0.653332 -0.653328 -0.382518
vn 0.936660 -0.285214 -0.203277
vn -0.285198 -0.936666 -0.203272
vn -0.690140 -0.690234 -0.217449
vn 0.285211 -0.936660 -0.203279
vn 0.690180 -0.690190 -0.217461
vn 0.845553 0.015156 -0.533676
vn 0.823860 0.033161 -0.565822
vn 0.529724 0.101332 -0.842095
vn 0.547099 0.033403 -0.836401
vn 0.845551 -0.015156 -0.533679
vn 0.547099 -0.033402 -0.836401
vn 0.823856 -0.033161 -0.565828
vn 0.529721 -0.101331 -0.842097
vn 0.877521 0.392426 -0.275606
vn 0.930368 0.170688 -0.324470
vn 0.930368 -0.170688 -0.324471
vn 0.877520 -0.392425 -0.275611
vn 0.896390 0.442106 0.032061
vn 0.980893 0.194039 0.014072
vn 0.980893 -0.194039 0.014071
vn 0.896390 -0.442106 0.032060
vn -0.823876 0.033220 -0.565796
vn -0.845588 0.015183 -0.533621
vn -0.547090 0.033422 -0.836407
vn -0.529711 0.101379 -0.842098
vn -0.845587 -0.015183 -0.533622
vn -0.547089 -0.033422 -0.836407
vn -0.823875 -0.033220 -0.565797
vn -0.529708 -0.101378 -0.842100
vn -0.930361 0.170694 -0.324488
vn -0.877508 0.392435 -0.275634
vn -0.930361 -0.170694 -0.324488
vn -0.877508 -0.392434 -0.275638
vn -0.980893 0.194039 0.014064
vn -0.896390 0.442106 0.032044
vn -0.980893 -0.194039 0.014065
vn -0.896390 -0.442106 0.032046
vn 0.000000 0.247290 0.968942
vn 0.000000 0.247290 0.968941
vn 0.000000 0.247290 0.968942
vn 0.000000 0.247290 0.968941
vn -0.247260 0.000000 0.968949
vn -0.247260 0.000000 0.968949
vn -0.247260 0.000000 0.968949
vn -0.247260 0.000000 0.968949
vn 0.000000 -0.247290 0.968942
vn 0.000000 -0.247290 0.968942
vn 0.000000 -0.247290 0.968942
vn 0.000000 -0.247290 0.968942
vn 0.247298 0.000000 0.968940
vn 0.247298 0.000000 0.968940
vn 0.247298 0.000000 0.968940
vn 0.247298 0.000000 0.968940
vn -0.033178 -0.823865 -0.565814
vn -0.015164 -0.845569 -0.533651
vn -0.033406 -0.547089 -0.836408
vn -0.101337 -0.529726 -0.842093
vn 0.015163 -0.845568 -0.533653
vn 0.033407 -0.547085 -0.836410
vn 0.033177 -0.823860 -0.565822
vn 0.101342 -0.529710 -0.842103
vn -0.170690 -0.930362 -0.324486
vn -0.392429 -0.877513 -0.275627
vn 0.170690 -0.930363 -0.324483
vn 0.392430 -0.877517 -0.275612
vn -0.194043 -0.980892 0.014072
vn -0.442115 -0.896385 0.032062
vn 0.194041 -0.980893 0.014069
vn 0.442106 -0.896390 0.032055
vn 0.000001 0.000000 1.000000
vn 0.000000 0.000000 1.000000
vn 0.000000 0.000000 1.000000
vn 0.000000 0.000000 1.000000
vn 0.000000 0.000000 1.000000
vn 0.000000 0.000000 1.000000
vn 0.000000 0.000000 1.000000
vn 0.000000 0.000000 1.000000
vn 0.000000 0.000000 1.000000
vn 0.000000 0.000000 1.000000
vn 0.000000 0.000000 1.000000
vn 0.000000 0.000000 1.000000
vn 0.000000 0.000000 1.000000
vn 0.000000 0.000000 1.000000
vn 0.000000 0.000000 1.000000
vn 0.000000 0.000000 1.000000
vn 0.000000 0.000000 1.000000
vn 0.000001 0.000000 1.000000
vn 0.000000 0.000000 1.000000
vn 0.000000 0.000000 1.000000
vn -0.442115 0.896385 0.032060
vn -0.194043 0.980892 0.014071
vn -0.170691 0.930363 -0.324482
vn -0.392430 0.877513 -0.275626
vn 0.194041 0.980893 0.014066
vn 0.170690 0.930364 -0.324482
vn 0.442106 0.896390 0.032049
vn 0.392430 0.877516 -0.275617
vn -0.033406 0.547092 -0.836406
vn -0.101336 0.529725 -0.842094
vn 0.033408 0.547089 -0.836408
vn 0.101341 0.529711 -0.842103
vn -0.015164 0.845576 -0.533640
vn -0.033178 0.823865 -0.565814
vn 0.015163 0.845579 -0.533635
vn 0.033178 0.823870 -0.565807
vn -0.690186 0.690183 -0.217464
vn -0.285214 0.936658 -0.203283
vn -0.653333 0.653328 -0.382516
vn -0.936661 0.285212 -0.203274
vn 0.285202 0.936664 -0.203277
vn 0.653333 0.653329 -0.382515
vn 0.690146 0.690227 -0.217452
vn 0.936652 0.285243 -0.203271
vn -0.653333 -0.653328 -0.382516
vn -0.936661 -0.285213 -0.203273
vn 0.653333 -0.653329 -0.382514
vn 0.936652 -0.285243 -0.203270
vn -0.285214 -0.936658 -0.203283
vn -0.690186 -0.690183 -0.217462
vn 0.285202 -0.936664 -0.203275
vn 0.690146 -0.690228 -0.217448
vn 0.845588 0.015183 -0.533620
vn 0.823869 0.033220 -0.565806
vn 0.529710 0.101378 -0.842099
vn 0.547093 0.033422 -0.836404
vn 0.845588 -0.015183 -0.533620
vn 0.547093 -0.033422 -0.836405
vn 0.823869 -0.033220 -0.565806
vn 0.529708 -0.101378 -0.842100
vn 0.877508 0.392435 -0.275635
vn 0.930362 0.170694 -0.324485
vn 0.930362 -0.170694 -0.324485
vn 0.877508 -0.392435 -0.275634
vn 0.896390 0.442106 0.032043
vn 0.980893 0.194039 0.014064
vn 0.980893 -0.194039 0.014065
vn 0.896390 -0.442106 0.032046
vn -0.823850 0.033161 -0.565837
vn -0.845551 0.015156 -0.533680
vn -0.547100 0.033396 -0.836401
vn -0.529722 0.101312 -0.842099
vn -0.845551 -0.015156 -0.533680
vn -0.547101 -0.033396 -0.836400
vn -0.823850 -0.033161 -0.565837
vn -0.529724 -0.101312 -0.842098
vn -0.930369 0.170684 -0.324469
vn -0.877524 0.392419 -0.275608
vn -0.930369 -0.170684 -0.324469
vn -0.877524 -0.392419 -0.275607
vn -0.980893 0.194039 0.014071
vn -0.896390 0.442106 0.032060
vn -0.980893 -0.194039 0.014070
vn -0.896390 -0.442106 0.032058
vn 0.000000 0.247280 0.968944
vn 0.000000 0.247280 0.968944
vn 0.000000 0.247280 0.968944
vn 0.000000 0.247280 0.968944
vn -0.247298 0.000000 0.968940
vn -0.247298 0.000000 0.968940
vn -0.247298 0.000000 0.968940
vn -0.247298 0.000000 0.968940
vn 0.000000 -0.247277 0.968945
vn 0.000000 -0.247277 0.968945
vn 0.000000 -0.247277 0.968945
vn 0.000000 -0.247277 0.968945
vn 0.247259 0.000000 0.968949
vn 0.247259 0.000000 0.968949
vn 0.247259 0.000000 0.968949
vn 0.247259 0.000000 0.968949
vn 0.000000 0.000000 1.000000
vn 0.000000 0.000000 1.000000
vn 0.000000 0.000000 1.000000
vn 0.000000 0.000000 1.000000
vn 0.004409 0.000000 -0.999990
vn 0.004409 0.000000 -0.999990
vn 0.004409 0.000000 -0.999990
vn 0.004409 0.000000 -0.999990
vn 0.000000 0.000000 -1.000000
vn 0.000000 0.000000 -1.000000
vn 0.000000 0.000000 -1.000000
vn 0.000000 0.000000 -1.000000
vn 0.000000 0.000000 1.000000
vn 0.000000 0.000000 1.000000
vn 0.000000 0.000000 1.000000
vn 0.000000 0.000000 1.000000
vn -0.000000 0.000000 1.000000
vn -0.000000 0.000000 1.000000
vn -0.000000 0.000000 1.000000
vn -0.000000 0.000000 1.000000
vn -0.000000 0.000000 -1.000000
vn -0.000000 0.000000 -1.000000
vn -0.000000 0.000000 -1.000000
vn -0.000000 0.000000 -1.000000
vn 0.004193 0.999963 0.007590
vn 0.004236 0.999961 -0.007685
vn 0.004542 0.999137 -0.041283
vn 0.004520 0.999689 -0.024523
vn 0.004520 -0.999689 -0.024523
vn 0.004542 -0.999137 -0.041283
vn 0.004236 -0.999962 -0.007685
vn 0.004193 -0.999963 0.007590
vn 0.999875 0.000000 0.015824
vn 0.999949 0.000000 -0.010111
vn 0.999949 0.000000 -0.010111
vn 0.999875 0.000000 0.015824
vn -1.000000 0.000000 0.000000
vn -0.999728 0.000000 0.023336
vn -0.999728 0.000000 0.023336
vn -1.000000 0.000000 0.000000
vn -0.000000 -0.997787 -0.066489
vn -0.000000 -0.999256 -0.038561
vn -0.000000 0.999256 -0.038561
vn -0.000000 0.997787 -0.066489
vn -0.000000 -0.999727 0.023343
vn 0.000000 -1.000000 0.000000
vn 0.000000 1.000000 0.000000
vn -0.000000 0.999728 0.023344
vn -0.000000 -0.116945 0.993138
vn -0.000000 0.116945 0.993138
vn -0.000000 0.000000 1.000000
vn -0.000000 -0.000000 1.000000
vn -0.154270 0.081867 0.984631
vn 0.000000 0.000000 1.000000
vn -0.154270 -0.081867 0.984631
vn 0.000000 -0.000000 1.000000
vn 0.000000 0.128347 0.991729
vn 0.000000 -0.128347 0.991729
vn 0.000000 -0.000000 1.000000
vn 0.000000 0.000000 1.000000
vn 0.186571 -0.099009 0.977440
vn 0.000000 -0.000000 1.000000
vn 0.186572 0.099009 0.977440
vn 0.000000 0.000000 1.000000
vn -0.000000 -0.923880 0.382683
vn -0.000000 -0.923881 0.382680
vn -0.000000 -0.382683 0.923880
vn -0.000000 -0.382682 0.923880
vn 0.000000 -0.382683 0.923880
vn 0.000000 -0.923880 0.382683
vn -0.000000 0.923879 0.382686
vn 0.000000 0.923880 0.382683
vn -0.000000 0.382681 0.923881
vn 0.000000 0.382680 0.923881
vn 0.000000 0.923881 0.382680
vn 0.000000 0.382679 0.923881
vn 0.000000 -0.382683 0.923880
vn 0.000000 -0.923881 0.382680
vn 0.382681 0.000000 0.923881
vn 0.382681 0.000000 0.923881
vn 0.923892 0.000000 0.382652
vn 0.923892 0.000000 0.382652
vn -0.923863 0.000000 0.382725
vn -0.923863 0.000000 0.382725
vn -0.382681 0.000000 0.923881
vn -0.382681 0.000000 0.923881
vn -0.000000 0.382682 0.923880
vn -0.000000 0.923877 0.382690
vn 0.000000 0.707102 0.707111
vn 0.000000 0.707102 0.707111
vn 0.000000 0.707102 0.707111
vn 0.000000 0.707102 0.707111
vn 0.707105 0.000000 0.707108
vn 0.707105 0.000000 0.707108
vn 0.707105 0.000000 0.707108
vn 0.707105 0.000000 0.707108
vn -0.707105 0.000000 0.707108
vn -0.707105 0.000000 0.707108
vn -0.707105 0.000000 0.707108
vn -0.707105 0.000000 0.707108
vn 0.000000 -0.707107 0.707107
vn 0.000000 -0.707107 0.707107
vn 0.000000 -0.707107 0.707107
vn 0.000000 -0.707107 0.707107
vn 0.000000 1.000000 0.000000
vn 0.000000 1.000000 0.000000
vn 0.000000 1.000000 0.000000
vn 0.000000 1.000000 0.000000
vn -1.000000 0.000000 0.000000
vn -1.000000 0.000000 0.000000
vn -1.000000 0.000000 0.000000
vn -1.000000 0.000000 0.000000
vn 0.000000 -1.000000 0.000000
vn 0.000000 -1.000000 0.000000
vn 0.000000 -1.000000 0.000000
vn 0.000000 -1.000000 0.000000
vn 1.000000 0.000000 0.000000
vn 1.000000 0.000000 0.000000
vn 1.000000 0.000000 0.000000
vn 1.000000 0.000000 0.000000
vn -0.000000 0.000000 1.000000
vn 0.000000 0.000000 1.000000
vn -0.000000 0.000000 1.000000
vn 0.000000 0.000000 1.000000
vn -0.000000 0.000000 0.000000
vn -0.000000 0.000000 0.000000
vn -0.000000 0.000000 0.000000
vn -0.000000 0.000000 0.000000
vn 0.000000 0.000000 1.000000
vn 0.000000 0.000000 1.000000
vn 0.000000 0.000000 1.000000
vn 0.000000 0.000000 1.000000
vn -0.000000 0.000000 0.000000
vn -0.000000 0.000000 0.000000
vn -1.000000 0.000000 0.000000
vn -1.000000 0.000000 0.000000
vn 0.000000 0.000000 1.000000
vn 0.000000 0.000000 1.000000
vn 0.000000 0.000000 1.000000
vn 0.000000 0.000000 1.000000
vn 0.000000 0.000000 0.000000
vn 0.000000 0.000000 0.000000
vn 0.000000 0.000000 0.000000
vn 0.000000 0.000000 0.000000
vn -0.000000 0.000000 1.000000
vn -0.000000 0.000000 1.000000
vn -0.000000 0.000000 1.000000
vn -0.000000 0.000000 1.000000
vn 0.000000 0.000000 0.000000
vn 0.000000 0.000000 0.000000
vn 1.000000 0.000000 0.000000
vn 1.000000 0.000000 0.000000
vn -0.000000 0.000000 1.000000
vn -0.000000 0.000000 1.000000
vn -0.000000 0.000000 1.000000
vn -0.000000 0.000000 1.000000
vn 0.000000 0.000000 0.000000
vn 0.000000 0.000000 0.000000
vn 0.000000 0.000000 0.000000
vn 0.000000 0.000000 0.000000
vn 0.000000 0.000000 1.000000
vn 0.000000 0.000000 1.000000
vn 0.000000 0.000000 1.000000
vn 0.000000 0.000000 1.000000
vn 0.000000 0.000000 0.000000
vn 0.000000 0.000000 0.000000
vn 0.000000 0.000000 0.000000
vn 0.000000 0.000000 0.000000
vn 0.000000 0.000000 1.000000
vn 0.000000 0.000000 1.000000
vn 0.000000 0.000000 1.000000
vn 0.000000 0.000000 1.000000
vn 0.000000 0.000000 0.000000
vn 0.000000 0.000000 0.000000
vn 1.000000 0.000000 0.000000
vn 1.000000 0.000000 0.000000
vn -0.000000 0.000000 1.000000
vn -0.000000 0.000000 1.000000
vn -0.000000 0.000000 1.000000
vn -0.000000 0.000000 1.000000
vn -0.000000 0.000000 0.000000
vn -0.000000 0.000000 0.000000
vn -0.000000 0.000000 0.000000
vn -0.000000 0.000000 0.000000
vn -0.000000 0.000000 1.000000
vn -0.000000 0.000000 1.000000
vn -0.000000 0.000000 1.000000
vn -0.000000 0.000000 1.000000
vn -0.000000 0.000000 0.000000
vn -1.000000 0.000000 0.000000
vn -1.000000 0.000000 0.000000
vn -1.000000 0.000000 0.000000
vn 0.000000 0.000000 1.000000
vn 0.000000 0.000000 1.000000
vn 0.000000 0.000000 1.000000
vn 0.000000 0.000000 1.000000
vn -0.000000 0.000000 0.000000
vn -0.000000 0.000000 0.000000
vn -0.000000 0.000000 0.000000
vn -0.000000 0.000000 0.000000
vn 0.000000 0.000000 1.000000
vn 0.000000 0.000000 1.000000
vn 0.000000 0.000000 1.000000
vn 0.000000 0.000000 1.000000
vn -0.000000 0.000000 0.000000
vn -0.000000 0.000000 0.000000
vn -1.000000 0.000000 0.000000
vn -1.000000 0.000000 0.000000
vn -0.000000 0.000000 1.000000
vn -0.000000 0.000000 1.000000
vn -0.000000 0.000000 1.000000
vn -0.000000 0.000000 1.000000
vn 0.000000 0.000000 0.000000
vn 0.000000 0.000000 0.000000
vn 1.000000 0.000000 0.000000
vn 1.000000 0.000000 0.000000
vn -0.000000 0.000000 1.000000
vn -0.000000 0.000000 1.000000
vn -0.000000 0.000000 1.000000
vn -0.000000 0.000000 1.000000
vn 0.000000 0.000000 0.000000
vn 0.000000 0.000000 0.000000
vn 0.000000 0.000000 0.000000
vn 0.000000 0.000000 0.000000
vn 0.000000 0.000000 1.000000
vn 0.000000 0.000000 1.000000
vn 0.000000 0.000000 1.000000
vn 0.000000 0.000000 1.000000
vn 0.000000 0.000000 0.000000
vn 0.000000 0.000000 0.000000
vn 0.000000 0.000000 0.000000
vn 0.000000 0.000000 0.000000
vn 0.000000 0.000000 1.000000
vn 0.000000 0.000000 1.000000
vn 0.000000 0.000000 1.000000
vn 0.000000 0.000000 1.000000
vn 0.000000 0.000000 0.000000
vn 0.000000 0.000000 0.000000
vn 1.000000 0.000000 0.000000
vn 1.000000 0.000000 0.000000
vn -0.000000 0.000000 1.000000
vn -0.000000 0.000000 1.000000
vn -0.000000 0.000000 1.000000
vn -0.000000 0.000000 1.000000
vn -0.000000 0.000000 0.000000
vn -0.000000 0.000000 0.000000
vn -1.000000 0.000000 0.000000
vn -1.000000 0.000000 0.000000
vn -0.000000 0.000000 1.000000
vn -0.000000 0.000000 1.000000
vn -0.000000 0.000000 1.000000
vn -0.000000 0.000000 1.000000
vn 0.997415 0.000000 0.071862
vn 0.997415 0.000000 0.071862
vn 0.997415 0.000000 0.071862
vn 0.997415 0.000000 0.071862
vn 0.000000 0.997860 0.065394
vn 0.000000 0.997860 0.065394
vn 0.000000 0.997860 0.065394
vn 0.000000 0.997860 0.065394
vn -0.997417 0.000000 0.071831
vn -0.997417 0.000000 0.071831
vn -0.997417 0.000000 0.071831
vn -0.997417 0.000000 0.071831
vn 0.000000 -0.997860 0.065386
vn 0.000000 -0.997860 0.065386
vn 0.000000 -0.997860 0.065386
vn 0.000000 -0.997860 0.065386
vn -0.843244 0.000000 0.537530
vn -0.843244 0.000000 0.537530
vn -0.843244 0.000000 0.537530
vn -0.843244 0.000000 0.537530
vn -0.000000 -0.997054 0.076703
vn -0.000000 -0.997054 0.076703
vn -0.000000 -0.997054 0.076703
vn -0.000000 -0.997054 0.076703
vn 0.843244 0.000000 0.537530
vn 0.843244 0.000000 0.537530
vn 0.843244 0.000000 0.537530
vn 0.843244 0.000000 0.537530
vn -0.000000 0.997054 0.076699
vn -0.000000 0.997054 0.076699
vn -0.000000 0.997054 0.076699
vn -0.000000 0.997054 0.076699
vn 0.000000 0.903447 0.428700
vn 0.000000 0.903447 0.428700
vn 0.000000 0.903447 0.428700
vn 0.000000 0.903447 0.428699
vn -0.997417 0.000000 0.071831
vn -0.997417 0.000000 0.071831
vn -0.997417 0.000000 0.071831
vn -0.997417 0.000000 0.071831
vn -0.000000 -0.930472 -0.366364
vn -0.000000 -0.930472 -0.366364
vn -0.000000 -0.930472 -0.366364
vn -0.000000 -0.930472 -0.366364
vn 0.997415 0.000000 0.071862
vn 0.997415 0.000000 0.071862
vn 0.997415 0.000000 0.071862
vn 0.997415 0.000000 0.071862
vn 0.000000 -0.903441 0.428712
vn 0.000000 -0.903441 0.428712
vn 0.000000 -0.903441 0.428712
vn 0.000000 -0.903441 0.428712
vn 0.997415 0.000000 0.071862
vn 0.997415 0.000000 0.071862
vn 0.997415 0.000000 0.071862
vn 0.997415 0.000000 0.071862
vn -0.000000 0.930476 -0.366354
vn -0.000000 0.930476 -0.366354
vn -0.000000 0.930476 -0.366354
vn -0.000000 0.930476 -0.366354
vn -0.997417 0.000000 0.071831
vn -0.997417 0.000000 0.071831
vn -0.997417 0.000000 0.071831
vn -0.997417 0.000000 0.071831
vn -0.000000 -0.873606 0.486633
vn -0.000000 -0.873606 0.486633
vn -0.000000 -0.873606 0.486633
vn -0.000000 -0.873606 0.486633
vn 0.843244 0.000000 0.537531
vn 0.843244 0.000000 0.537531
vn 0.843244 0.000000 0.537531
vn 0.843244 0.000000 0.537531
vn 0.000000 0.907730 -0.419556
vn 0.000000 0.907729 -0.419556
vn 0.000000 0.907730 -0.419556
vn 0.000000 0.907730 -0.419556
vn -0.843244 0.000000 0.537531
vn -0.843244 0.000000 0.537531
vn -0.843244 0.000000 0.537531
vn -0.843244 0.000000 0.537531
vn -0.000000 0.873606 0.486634
vn -0.000000 0.873606 0.486634
vn -0.000000 0.873606 0.486634
vn -0.000000 0.873606 0.486634
vn -0.843243 0.000000 0.537532
vn -0.843243 0.000000 0.537532
vn -0.843243 0.000000 0.537532
vn -0.843243 0.000000 0.537532
vn 0.000000 -0.907731 -0.419552
vn 0.000000 -0.907731 -0.419552
vn 0.000000 -0.907731 -0.419552
vn 0.000000 -0.907731 -0.419552
vn 0.843243 0.000000 0.537532
vn 0.843243 0.000000 0.537532
vn 0.843243 0.000000 0.537532
vn 0.843243 0.000000 0.537532
vn 0.000000 0.961548 0.274637
vn 0.000000 0.961548 0.274637
vn 0.000000 0.961548 0.274637
vn 0.000000 0.961548 0.274637
vn -0.997417 0.000000 0.071831
vn -0.997417 0.000000 0.071831
vn -0.997417 0.000000 0.071831
vn -0.997417 0.000000 0.071831
vn -0.000000 -0.986932 -0.161138
vn -0.000000 -0.986932 -0.161138
vn -0.000000 -0.986932 -0.161138
vn -0.000000 -0.986932 -0.161138
vn 0.997415 0.000000 0.071861
vn 0.997415 0.000000 0.071861
vn 0.997415 0.000000 0.071861
vn 0.997415 0.000000 0.071861
vn 0.000000 -0.961547 0.274641
vn 0.000000 -0.961547 0.274641
vn 0.000000 -0.961547 0.274641
vn 0.000000 -0.961547 0.274641
vn 0.997415 0.000000 0.071861
vn 0.997415 0.000000 0.071861
vn 0.997415 0.000000 0.071861
vn 0.997415 0.000000 0.071861
vn -0.000000 0.986932 -0.161139
vn -0.000000 0.986932 -0.161139
vn -0.000000 0.986932 -0.161139
vn -0.000000 0.986932 -0.161139
vn -0.997417 0.000000 0.071831
vn -0.997417 0.000000 0.071831
vn -0.997417 0.000000 0.071831
vn -0.997417 0.000000 0.071831
vn -0.000000 -0.948128 0.317887
vn -0.000000 -0.948129 0.317887
vn -0.000000 -0.948128 0.317887
vn -0.000000 -0.948129 0.317887
vn 0.843245 0.000000 0.537530
vn 0.843245 0.000000 0.537530
vn 0.843245 0.000000 0.537530
vn 0.843245 0.000000 0.537530
vn 0.000000 0.982126 -0.188227
vn 0.000000 0.982126 -0.188227
vn 0.000000 0.982126 -0.188227
vn 0.000000 0.982126 -0.188227
vn -0.843245 0.000000 0.537530
vn -0.843245 0.000000 0.537530
vn -0.843245 0.000000 0.537530
vn -0.843245 0.000000 0.537530
vn -0.000000 0.948128 0.317888
vn -0.000000 0.948128 0.317888
vn -0.000000 0.948128 0.317888
vn -0.000000 0.948128 0.317888
vn -0.843244 0.000000 0.537531
vn -0.843244 0.000000 0.537531
vn -0.843244 0.000000 0.537531
vn -0.843244 0.000000 0.537531
vn 0.000000 -0.982125 -0.188229
vn 0.000000 -0.982125 -0.188229
vn 0.000000 -0.982125 -0.188229
vn 0.000000 -0.982125 -0.188228
vn 0.843244 0.000000 0.537531
vn 0.843244 0.000000 0.537531
vn 0.843244 0.000000 0.537531
vn 0.843244 0.000000 0.537531
vn -0.033176 -0.823851 -0.565835
vn -0.015163 -0.845574 -0.533643
vn -0.033407 -0.547098 -0.836402
vn -0.101336 -0.529692 -0.842115
vn 0.015164 -0.845564 -0.533658
vn 0.033405 -0.547098 -0.836402
vn 0.033177 -0.823830 -0.565865
vn 0.101332 -0.529712 -0.842103
vn -0.170688 -0.930367 -0.324475
vn -0.392412 -0.877528 -0.275605
vn 0.170690 -0.930366 -0.324475
vn 0.392421 -0.877524 -0.275605
vn -0.194038 -0.980893 0.014076
vn -0.442082 -0.896401 0.032070
vn 0.194043 -0.980892 0.014080
vn 0.442101 -0.896392 0.032079
vn 0.000001 0.000000 1.000000
vn 0.000000 0.000000 1.000000
vn -0.000000 0.000000 1.000000
vn -0.000000 0.000000 1.000000
vn 0.000000 0.000000 1.000000
vn 0.000000 0.000000 1.000000
vn 0.000000 0.000000 1.000000
vn 0.000000 0.000000 1.000000
vn -0.000000 0.000000 1.000000
vn -0.000000 0.000000 1.000000
vn 0.000000 0.000000 1.000000
vn 0.000000 0.000000 1.000000
vn 0.000000 0.000000 1.000000
vn 0.000000 0.000000 1.000000
vn 0.000000 0.000000 1.000000
vn 0.000000 0.000000 1.000000
vn 0.000000 0.000000 1.000000
vn 0.000001 0.000000 1.000000
vn 0.000000 0.000000 1.000000
vn 0.000000 0.000000 1.000000
vn -0.442086 0.896399 0.032059
vn -0.194041 0.980893 0.014071
vn -0.170690 0.930364 -0.324479
vn -0.392415 0.877523 -0.275615
vn 0.194045 0.980892 0.014077
vn 0.170693 0.930364 -0.324479
vn 0.442106 0.896389 0.032073
vn 0.392424 0.877520 -0.275613
vn -0.033408 0.547094 -0.836404
vn -0.101338 0.529690 -0.842116
vn 0.033407 0.547095 -0.836403
vn 0.101336 0.529711 -0.842103
vn -0.015163 0.845576 -0.533640
vn -0.033176 0.823857 -0.565825
vn 0.015164 0.845566 -0.533655
vn 0.033178 0.823837 -0.565855
vn -0.690192 0.690178 -0.217462
vn -0.285216 0.936659 -0.203275
vn -0.653338 0.653328 -0.382506
vn -0.936662 0.285209 -0.203274
vn 0.285210 0.936662 -0.203271
vn 0.653331 0.653332 -0.382512
vn 0.690151 0.690221 -0.217455
vn 0.936651 0.285240 -0.203283
vn -0.653338 -0.653329 -0.382506
vn -0.936662 -0.285210 -0.203272
vn 0.653331 -0.653333 -0.382512
vn 0.936650 -0.285241 -0.203283
vn -0.285212 -0.936661 -0.203273
vn -0.690187 -0.690184 -0.217456
vn 0.285205 -0.936664 -0.203271
vn 0.690145 -0.690227 -0.217454
vn 0.845589 0.015156 -0.533619
vn 0.823880 0.033162 -0.565793
vn 0.529709 0.101308 -0.842107
vn 0.547090 0.033396 -0.836407
vn 0.845588 -0.015156 -0.533621
vn 0.547090 -0.033396 -0.836407
vn 0.823878 -0.033162 -0.565797
vn 0.529708 -0.101309 -0.842108
vn 0.877524 0.392414 -0.275615
vn 0.930364 0.170683 -0.324484
vn 0.930364 -0.170683 -0.324485
vn 0.877522 -0.392415 -0.275618
vn 0.896392 0.442101 0.032076
vn 0.980893 0.194039 0.014078
vn 0.980893 -0.194040 0.014077
vn 0.896390 -0.442103 0.032074
vn -0.823827 0.033101 -0.565874
vn -0.845538 0.015129 -0.533701
vn -0.547079 0.033405 -0.836414
vn -0.529704 0.101357 -0.842105
vn -0.845537 -0.015129 -0.533702
vn -0.547078 -0.033405 -0.836415
vn -0.823825 -0.033101 -0.565877
vn -0.529702 -0.101358 -0.842106
vn -0.930362 0.170694 -0.324483
vn -0.877513 0.392433 -0.275620
vn -0.930362 -0.170695 -0.324483
vn -0.877512 -0.392435 -0.275621
vn -0.980893 0.194039 0.014072
vn -0.896392 0.442101 0.032061
vn -0.980893 -0.194040 0.014072
vn -0.896391 -0.442103 0.032061
vn 0.000000 0.247289 0.968942
vn 0.000000 0.247289 0.968942
vn 0.000000 0.247289 0.968942
vn 0.000000 0.247289 0.968942
vn -0.247278 0.000000 0.968945
vn -0.247278 0.000000 0.968945
vn -0.247278 0.000000 0.968945
vn -0.247278 0.000000 0.968945
vn 0.000000 -0.247292 0.968941
vn 0.000000 -0.247292 0.968941
vn 0.000000 -0.247292 0.968941
vn 0.000000 -0.247292 0.968941
vn 0.247300 0.000000 0.968939
vn 0.247300 0.000000 0.968939
vn 0.247300 0.000000 0.968939
vn 0.247300 0.000000 0.968939
vn -0.033172 -0.823849 -0.565838
vn -0.015160 -0.845569 -0.533650
vn -0.033407 -0.547093 -0.836405
vn -0.101339 -0.529697 -0.842112
vn 0.015160 -0.845573 -0.533645
vn 0.033407 -0.547100 -0.836400
vn 0.033172 -0.823858 -0.565825
vn 0.101339 -0.529716 -0.842099
vn -0.170690 -0.930364 -0.324480
vn -0.392418 -0.877526 -0.275601
vn 0.170689 -0.930365 -0.324479
vn 0.392415 -0.877528 -0.275598
vn -0.194041 -0.980893 0.014070
vn -0.442087 -0.896399 0.032057
vn 0.194041 -0.980893 0.014072
vn 0.442086 -0.896399 0.032060
vn 0.000001 0.000000 1.000000
vn 0.000000 0.000000 1.000000
vn 0.000000 0.000000 1.000000
vn 0.000000 0.000000 1.000000
vn 0.000000 0.000000 1.000000
vn 0.000000 0.000000 1.000000
vn 0.000000 0.000000 1.000000
vn 0.000000 0.000000 1.000000
vn 0.000000 0.000000 1.000000
vn 0.000000 0.000000 1.000000
vn 0.000000 0.000000 1.000000
vn 0.000000 0.000000 1.000000
vn 0.000000 0.000000 1.000000
vn 0.000000 0.000000 1.000000
vn 0.000000 0.000000 1.000000
vn 0.000000 0.000000 1.000000
vn 0.000000 0.000000 1.000000
vn 0.000001 0.000000 1.000000
vn 0.000000 0.000000 1.000000
vn 0.000000 0.000000 1.000000
vn -0.442082 0.896402 0.032060
vn -0.194038 0.980893 0.014072
vn -0.170688 0.930366 -0.324477
vn -0.392414 0.877529 -0.275597
vn 0.194038 0.980893 0.014072
vn 0.170687 0.930367 -0.324475
vn 0.442082 0.896402 0.032060
vn 0.392411 0.877531 -0.275595
vn -0.033407 0.547098 -0.836402
vn -0.101338 0.529700 -0.842110
vn 0.033407 0.547103 -0.836398
vn 0.101337 0.529716 -0.842100
vn -0.015163 0.845572 -0.533646
vn -0.033178 0.823852 -0.565833
vn 0.015163 0.845573 -0.533644
vn 0.033178 0.823855 -0.565829
vn -0.690186 0.690184 -0.217460
vn -0.285202 0.936665 -0.203270
vn -0.653321 0.653345 -0.382507
vn -0.936662 0.285210 -0.203274
vn 0.285202 0.936665 -0.203269
vn 0.653321 0.653345 -0.382507
vn 0.690187 0.690184 -0.217459
vn 0.936662 0.285210 -0.203274
vn -0.653321 -0.653345 -0.382507
vn -0.936661 -0.285210 -0.203275
vn 0.653321 -0.653345 -0.382507
vn 0.936661 -0.285210 -0.203275
vn -0.285202 -0.936665 -0.203270
vn -0.690186 -0.690184 -0.217462
vn 0.285202 -0.936665 -0.203270
vn 0.690186 -0.690183 -0.217463
vn 0.845588 0.015156 -0.533621
vn 0.823878 0.033162 -0.565797
vn 0.529693 0.101326 -0.842115
vn 0.547073 0.033402 -0.836418
vn 0.845587 -0.015156 -0.533622
vn 0.547073 -0.033401 -0.836418
vn 0.823877 -0.033162 -0.565798
vn 0.529695 -0.101326 -0.842114
vn 0.877513 0.392418 -0.275644
vn 0.930358 0.170685 -0.324500
vn 0.930358 -0.170686 -0.324500
vn 0.877512 -0.392420 -0.275645
vn 0.896391 0.442103 0.032064
vn 0.980893 0.194039 0.014073
vn 0.980893 -0.194039 0.014071
vn 0.896390 -0.442106 0.032061
vn -0.823874 0.033162 -0.565802
vn -0.845587 0.015156 -0.533623
vn -0.547072 0.033408 -0.836419
vn -0.529692 0.101345 -0.842114
vn -0.845588 -0.015156 -0.533622
vn -0.547072 -0.033407 -0.836419
vn -0.823877 -0.033162 -0.565798
vn -0.529692 -0.101345 -0.842114
vn -0.930358 0.170689 -0.324500
vn -0.877510 0.392425 -0.275643
vn -0.930357 -0.170689 -0.324500
vn -0.877509 -0.392427 -0.275645
vn -0.980893 0.194039 0.014073
vn -0.896391 0.442104 0.032064
vn -0.980893 -0.194039 0.014072
vn -0.896390 -0.442106 0.032061
vn 0.000000 0.247284 0.968943
vn 0.000000 0.247284 0.968943
vn 0.000000 0.247284 0.968943
vn 0.000000 0.247284 0.968943
vn -0.247300 0.000000 0.968939
vn -0.247300 0.000000 0.968939
vn -0.247300 0.000000 0.968939
vn -0.247300 0.000000 0.968939
vn 0.000000 -0.247284 0.968943
vn 0.000000 -0.247284 0.968943
vn 0.000000 -0.247284 0.968943
vn 0.000000 -0.247284 0.968943
vn 0.247300 0.000000 0.968939
vn 0.247300 0.000000 0.968939
vn 0.247300 0.000000 0.968939
vn 0.247300 0.000000 0.968939
s 1
g Screen Air_Alarm_Screen1
usemtl initialShadingGroup
f 1/553/1 2/548/2 6/550/3 5/554/4
f 2/548/2 3/547/5 7/549/6 6/550/3
f 3/547/5 4/551/7 8/552/8 7/549/6
f 5/663/4 6/664/3 10/665/9 9/666/10
f 6/664/3 7/667/6 11/668/11 10/665/9
f 7/667/6 8/671/8 12/672/12 11/668/11
f 9/519/10 10/520/9 14/521/13 13/522/14
f 10/520/9 11/523/11 15/524/15 14/521/13
f 11/523/11 12/525/12 16/526/16 15/524/15
s 2
f 13/687/17 14/688/18 18/689/19 17/690/20
f 14/688/18 15/691/21 19/692/22 18/689/19
f 15/691/21 16/695/23 20/696/24 19/692/22
f 17/690/20 18/689/19 22/693/25 21/694/26
s off
f 57/698/27 58/697/28 59/704/29 60/699/30
s 2
f 19/692/22 20/696/24 24/702/31 23/703/32
f 21/694/26 22/693/25 26/700/33 25/701/34
f 22/693/25 23/703/32 27/705/35 26/700/33
f 23/703/32 24/702/31 28/706/36 27/705/35
s 3
f 25/527/37 26/528/38 30/529/39 29/530/40
f 26/528/38 27/531/41 31/532/42 30/529/39
f 27/531/41 28/533/43 32/534/44 31/532/42
f 29/678/40 30/681/39 34/682/45 33/677/46
f 30/681/39 31/685/42 35/686/47 34/682/45
f 31/685/42 32/684/44 36/683/48 35/686/47
f 33/543/46 34/539/45 38/535/49 37/544/50
f 34/539/45 35/540/47 39/536/51 38/535/49
f 35/540/47 36/541/48 40/542/52 39/536/51
s 4
f 37/363/53 38/364/54 42/360/55 41/359/56
f 38/535/54 39/536/57 43/537/58 42/538/55
f 39/375/57 40/376/59 44/372/60 43/371/58
f 41/359/56 42/360/55 46/361/61 45/362/62
f 42/707/55 43/708/58 47/709/63 46/710/61
f 43/371/58 44/372/60 48/373/64 47/374/63
f 45/362/62 46/361/61 2/365/65 1/366/66
f 46/545/61 47/546/63 3/547/67 2/548/65
f 47/374/63 48/373/64 4/379/68 3/380/67
s 5
f 44/372/69 40/376/70 36/381/71 49/377/72
f 48/373/73 44/372/69 49/377/72 50/378/74
f 4/379/75 48/373/73 50/378/74 8/382/76
f 49/679/72 36/683/71 32/684/77 51/680/78
f 50/675/74 49/679/72 51/680/78 52/676/79
f 8/671/76 50/675/74 52/676/79 12/672/80
f 51/383/78 32/384/77 28/385/81 24/386/82
f 52/387/79 51/383/78 24/386/82 20/388/83
f 12/389/80 52/387/79 20/388/83 16/390/84
s 6
f 37/363/85 41/359/86 53/368/87 33/369/88
f 41/359/86 45/362/89 54/367/90 53/368/87
f 45/362/89 1/366/91 5/370/92 54/367/90
f 33/677/88 53/673/87 55/674/93 29/678/94
f 53/673/87 54/669/90 56/670/95 55/674/93
f 54/669/90 5/663/92 9/666/96 56/670/95
f 29/391/94 55/392/93 21/393/97 25/394/98
f 55/392/93 56/395/95 17/396/99 21/393/97
f 56/395/95 9/397/96 13/398/100 17/396/99
s off
f 18/689/101 19/692/102 58/697/103 57/698/104
f 19/692/105 23/703/106 59/704/107 58/697/108
f 23/703/109 22/693/110 60/699/111 59/704/112
f 22/693/113 18/689/114 57/698/115 60/699/116
s 7
f 61/589/117 62/584/118 66/586/119 65/590/120
f 62/584/118 63/583/121 67/585/122 66/586/119
f 63/583/121 64/587/123 68/588/124 67/585/122
f 65/711/120 66/712/119 70/713/125 69/714/126
f 66/712/119 67/715/122 71/716/127 70/713/125
f 67/715/122 68/719/124 72/720/128 71/716/127
f 69/555/126 70/556/125 74/557/129 73/558/130
f 70/556/125 71/559/127 75/560/131 74/557/129
f 71/559/127 72/561/128 76/562/132 75/560/131
s 8
f 73/735/133 74/736/134 78/737/135 77/738/136
f 74/736/134 75/739/137 79/740/138 78/737/135
f 75/739/137 76/743/139 80/744/140 79/740/138
f 77/738/136 78/737/135 82/741/141 81/742/142
s off
f 117/746/143 118/745/144 119/752/145 120/747/146
s 8
f 79/740/138 80/744/140 84/750/147 83/751/148
f 81/742/142 82/741/141 86/748/149 85/749/150
f 82/741/141 83/751/148 87/753/151 86/748/149
f 83/751/148 84/750/147 88/754/152 87/753/151
s 9
f 85/563/153 86/564/154 90/565/155 89/566/156
f 86/564/154 87/567/157 91/568/158 90/565/155
f 87/567/157 88/569/159 92/570/160 91/568/158
f 89/726/156 90/729/155 94/730/161 93/725/162
f 90/729/155 91/733/158 95/734/163 94/730/161
f 91/733/158 92/732/160 96/731/164 95/734/163
f 93/579/162 94/575/161 98/571/165 97/580/166
f 94/575/161 95/576/163 99/572/167 98/571/165
f 95/576/163 96/577/164 100/578/168 99/572/167
s 10
f 97/403/169 98/404/170 102/400/171 101/399/172
f 98/571/170 99/572/173 103/573/174 102/574/171
f 99/415/173 100/416/175 104/412/176 103/411/174
f 101/399/172 102/400/171 106/401/177 105/402/178
f 102/755/171 103/756/174 107/757/179 106/758/177
f 103/411/174 104/412/176 108/413/180 107/414/179
f 105/402/178 106/401/177 62/405/181 61/406/182
f 106/581/177 107/582/179 63/583/183 62/584/181
f 107/414/179 108/413/180 64/419/184 63/420/183
s 11
f 104/412/185 100/416/186 96/421/187 109/417/188
f 108/413/189 104/412/185 109/417/188 110/418/190
f 64/419/191 108/413/189 110/418/190 68/422/192
f 109/727/188 96/731/187 92/732/193 111/728/194
f 110/723/190 109/727/188 111/728/194 112/724/195
f 68/719/192 110/723/190 112/724/195 72/720/196
f 111/423/194 92/424/193 88/425/197 84/426/198
f 112/427/195 111/423/194 84/426/198 80/428/199
f 72/429/196 112/427/195 80/428/199 76/430/200
s 12
f 97/403/201 101/399/202 113/408/203 93/409/204
f 101/399/202 105/402/205 114/407/206 113/408/203
f 105/402/205 61/406/207 65/410/208 114/407/206
f 93/725/204 113/721/203 115/722/209 89/726/210
f 113/721/203 114/717/206 116/718/211 115/722/209
f 114/717/206 65/711/208 69/714/212 116/718/211
f 89/431/210 115/432/209 81/433/213 85/434/214
f 115/432/209 116/435/211 77/436/215 81/433/213
f 116/435/211 69/437/212 73/438/216 77/436/215
s off
f 78/737/217 79/740/218 118/745/219 117/746/220
f 79/740/221 83/751/222 119/752/223 118/745/224
f 83/751/225 82/741/226 120/747/227 119/752/228
f 82/741/229 78/737/230 117/746/231 120/747/232
f 125/239/233 126/240/234 127/241/235 128/242/236
f 121/243/237 122/244/238 124/245/239 123/246/240
f 124/245/241 122/244/242 130/247/243 129/248/244
f 206/251/245 205/252/246 207/253/247 208/254/248
f 209/255/249 210/256/250 211/257/251 212/258/252
f 121/243/253 123/246/254 131/249/255 132/250/256
s 13
f 147/123/257 150/124/258 122/125/259 121/126/260
s 14
f 123/135/261 124/136/262 144/137/263 141/138/264
s 15
f 153/1/265 129/2/266 130/3/267 156/4/268
s 16
f 131/7/269 159/8/270 162/9/271 132/10/272
s 14
f 144/137/263 124/136/262 129/139/273 153/140/274
s 13
f 122/125/259 150/124/258 156/129/275 130/130/276
s 14
f 123/135/261 141/138/264 159/143/277 131/144/278
s 13
f 147/123/257 121/126/260 132/131/279 162/132/280
s 17
f 143/263/281 149/264/282 134/265/283 133/266/284
f 149/264/282 164/269/285 135/270/286 134/265/283
f 164/269/285 161/271/287 136/272/288 135/270/286
f 161/271/287 143/263/281 133/266/284 136/272/288
f 152/275/289 146/273/290 137/285/291 138/286/292
f 146/273/290 155/284/293 139/289/294 137/285/291
f 155/284/293 158/287/295 140/290/296 139/289/294
f 158/287/295 152/275/289 138/286/292 140/290/296
s 14
f 141/138/264 142/141/297 160/146/298 159/143/277
s 17
f 142/279/299 143/263/281 161/271/287 160/280/300
f 143/263/281 142/279/299 145/281/301 146/273/290
s 14
f 142/141/297 141/138/264 144/137/263 145/142/302
s 13
f 147/123/257 148/127/303 151/128/304 150/124/258
s 17
f 148/277/305 149/264/282 152/275/289 151/282/306
s 13
f 150/124/258 151/128/304 157/134/307 156/129/275
s 17
f 151/282/306 152/275/289 158/287/295 157/288/308
f 146/273/290 145/281/301 154/283/309 155/284/293
s 14
f 145/142/302 144/137/263 153/140/274 154/145/310
s 17
f 155/284/293 154/283/311 157/288/312 158/287/295
s 15
f 154/5/313 153/1/265 156/4/268 157/6/314
s 16
f 159/8/270 160/11/315 163/12/316 162/9/271
s 17
f 160/280/317 161/271/287 164/269/285 163/278/318
f 149/264/282 148/277/305 163/278/319 164/269/285
s 13
f 148/127/303 147/123/257 162/132/280 163/133/320
s off
f 165/147/321 166/151/322 168/152/323 167/148/324
f 166/23/325 165/20/326 171/19/327 172/24/328
f 167/13/329 168/17/330 170/18/331 169/14/332
f 169/153/333 170/157/334 172/158/335 171/154/336
f 165/147/337 167/148/338 126/149/339 125/150/340
f 167/13/341 169/14/342 127/15/343 126/16/344
f 169/153/345 171/154/346 128/155/347 127/156/348
f 171/19/349 165/20/350 125/21/351 128/22/352
s 17
f 143/263/281 146/273/290 168/274/353 166/267/354
f 146/273/290 152/275/289 170/276/355 168/274/353
f 152/275/289 149/264/282 172/268/356 170/276/355
f 149/264/282 143/263/281 166/267/354 172/268/356
s off
f 138/25/357 137/26/358 173/27/359 174/28/360
f 213/291/361 214/292/362 215/293/363 216/294/364
f 139/29/365 140/30/366 176/31/367 175/32/368
f 218/295/369 217/296/370 219/297/371 220/298/372
f 133/37/373 134/38/374 178/39/375 177/40/376
f 221/299/377 222/300/378 223/301/379 224/302/380
f 135/43/381 136/44/382 180/45/383 179/46/384
f 226/305/385 225/306/386 227/307/387 228/308/388
f 174/51/389 173/52/390 181/53/391 182/54/392
f 173/311/393 175/312/394 183/313/395 181/314/396
f 175/55/397 176/56/398 184/57/399 183/58/400
f 176/315/401 174/316/402 182/317/403 184/318/404
f 177/40/405 178/39/406 186/41/407 185/42/408
f 178/319/409 179/320/410 187/321/411 186/322/412
f 179/59/413 180/60/414 188/61/415 187/62/416
f 180/323/417 177/324/418 185/325/419 188/326/420
f 182/63/421 181/64/422 189/65/423 190/66/424
f 229/327/425 230/328/426 231/329/427 232/330/428
f 183/67/429 184/68/430 192/69/431 191/70/432
f 234/331/433 233/332/434 235/333/435 236/334/436
f 185/75/437 186/76/438 194/77/439 193/78/440
f 237/335/441 238/336/442 239/337/443 240/338/444
f 187/83/445 188/84/446 196/85/447 195/86/448
f 242/339/449 241/340/450 243/341/451 244/342/452
f 190//453 189//454 197//455 198//456
f 189/343/457 191/344/458 199/345/459 197/346/460
f 191//461 192//462 200//463 199//464
f 192/347/465 190/348/466 198/349/467 200/350/468
f 193/91/469 194/92/470 202/93/471 201/94/472
f 194/351/473 195/352/474 203/353/475 202/354/476
f 195/95/477 196/96/478 204/97/479 203/98/480
f 196/355/481 193/356/482 201/357/483 204/358/484
f 198/99/485 197/100/486 205/101/487 206/102/488
f 197/159/489 199/160/490 207/161/491 205/162/492
f 199/103/493 200/104/494 208/105/495 207/106/496
f 200/163/497 198/164/498 206/165/499 208/166/500
f 201/259/501 202/260/502 210/256/503 209/255/504
f 202/167/505 203/168/506 211/169/507 210/170/508
f 203/261/509 204/262/510 212/258/511 211/257/512
f 204/171/513 201/172/514 209/173/515 212/174/516
f 137/175/517 139/176/518 214/177/519 213/178/520
f 139/29/521 175/32/522 215/35/523 214/36/524
f 175/179/525 173/180/526 216/181/527 215/182/528
f 173/107/529 137/108/530 213/109/531 216/110/532
f 140/183/533 138/184/534 217/185/535 218/186/536
f 138/111/537 174/112/538 219/113/539 217/114/540
f 174/187/541 176/188/542 220/189/543 219/190/544
f 176/31/545 140/30/546 218/33/547 220/34/548
f 134/191/549 135/192/550 222/193/551 221/194/552
f 135/43/553 179/46/554 223/49/555 222/50/556
f 179/195/557 178/196/558 224/197/559 223/198/560
f 178/303/561 134/304/562 221/299/563 224/302/564
f 136/199/565 133/200/566 225/201/567 226/202/568
f 133/309/569 177/310/570 227/307/571 225/306/572
f 177/203/573 180/204/574 228/205/575 227/206/576
f 180/45/577 136/44/578 226/47/579 228/48/580
f 181/207/581 183/208/582 230/209/583 229/210/584
f 183/67/585 191/70/586 231/73/587 230/74/588
f 191/211/589 189/212/590 232/213/591 231/214/592
f 189/115/593 181/116/594 229/117/595 232/118/596
f 184/215/597 182/216/598 233/217/599 234/218/600
f 182/119/601 190/120/602 235/121/603 233/122/604
f 190/219/605 192/220/606 236/221/607 235/222/608
f 192/69/609 184/68/610 234/71/611 236/72/612
f 186/223/613 187/224/614 238/225/615 237/226/616
f 187/83/617 195/86/618 239/89/619 238/90/620
f 195/227/621 194/228/622 240/229/623 239/230/624
f 194/77/625 186/76/626 237/79/627 240/80/628
f 188/231/629 185/232/630 241/233/631 242/234/632
f 185/75/633 193/78/634 243/81/635 241/82/636
f 193/235/637 196/236/638 244/237/639 243/238/640
f 196/85/641 188/84/642 242/87/643 244/88/644
s 19
f 245/625/645 246/620/646 250/622/647 249/626/648
f 246/620/646 247/619/649 251/621/650 250/622/647
f 247/619/649 248/623/651 252/624/652 251/621/650
f 249/759/648 250/760/647 254/761/653 253/762/654
f 250/760/647 251/763/650 255/764/655 254/761/653
f 251/763/650 252/767/652 256/768/656 255/764/655
f 253/591/654 254/592/653 258/593/657 257/594/658
f 254/592/653 255/595/655 259/596/659 258/593/657
f 255/595/655 256/597/656 260/598/660 259/596/659
s 20
f 257/783/661 258/784/662 262/785/663 261/786/664
f 258/784/662 259/787/665 263/788/666 262/785/663
f 259/787/665 260/791/667 264/792/668 263/788/666
f 261/786/664 262/785/663 266/789/669 265/790/670
s off
f 301/794/671 302/793/672 303/800/673 304/795/674
s 20
f 263/788/666 264/792/668 268/798/675 267/799/676
f 265/790/670 266/789/669 270/796/677 269/797/678
f 266/789/669 267/799/676 271/801/679 270/796/677
f 267/799/676 268/798/675 272/802/680 271/801/679
s 21
f 269/599/681 270/600/682 274/601/683 273/602/684
f 270/600/682 271/603/685 275/604/686 274/601/683
f 271/603/685 272/605/687 276/606/688 275/604/686
f 273/774/684 274/777/683 278/778/689 277/773/690
f 274/777/683 275/781/686 279/782/691 278/778/689
f 275/781/686 276/780/688 280/779/692 279/782/691
f 277/615/690 278/611/689 282/607/693 281/616/694
f 278/611/689 279/612/691 283/608/695 282/607/693
f 279/612/691 280/613/692 284/614/696 283/608/695
s 22
f 281/443/697 282/444/698 286/440/699 285/439/700
f 282/607/698 283/608/701 287/609/702 286/610/699
f 283/455/701 284/456/703 288/452/704 287/451/702
f 285/439/700 286/440/699 290/441/705 289/442/706
f 286/803/699 287/804/702 291/805/707 290/806/705
f 287/451/702 288/452/704 292/453/708 291/454/707
f 289/442/706 290/441/705 246/445/709 245/446/710
f 290/617/705 291/618/707 247/619/711 246/620/709
f 291/454/707 292/453/708 248/459/712 247/460/711
s 23
f 288/452/713 284/456/714 280/461/715 293/457/716
f 292/453/717 288/452/713 293/457/716 294/458/718
f 248/459/719 292/453/717 294/458/718 252/462/720
f 293/775/716 280/779/715 276/780/721 295/776/722
f 294/771/718 293/775/716 295/776/722 296/772/723
f 252/767/720 294/771/718 296/772/723 256/768/724
f 295/463/722 276/464/721 272/465/725 268/466/726
f 296/467/723 295/463/722 268/466/726 264/468/727
f 256/469/724 296/467/723 264/468/727 260/470/728
s 24
f 281/443/729 285/439/730 297/448/731 277/449/732
f 285/439/730 289/442/733 298/447/734 297/448/731
f 289/442/733 245/446/735 249/450/736 298/447/734
f 277/773/732 297/769/731 299/770/737 273/774/738
f 297/769/731 298/765/734 300/766/739 299/770/737
f 298/765/734 249/759/736 253/762/740 300/766/739
f 273/471/738 299/472/737 265/473/741 269/474/742
f 299/472/737 300/475/739 261/476/743 265/473/741
f 300/475/739 253/477/740 257/478/744 261/476/743
s off
f 262/785/745 263/788/746 302/793/747 301/794/748
f 263/788/749 267/799/750 303/800/751 302/793/752
f 267/799/753 266/789/754 304/795/755 303/800/756
f 266/789/757 262/785/758 301/794/759 304/795/760
s 25
f 305/661/761 306/656/762 310/658/763 309/662/764
f 306/656/762 307/655/765 311/657/766 310/658/763
f 307/655/765 308/659/767 312/660/768 311/657/766
f 309/807/764 310/808/763 314/809/769 313/810/770
f 310/808/763 311/811/766 315/812/771 314/809/769
f 311/811/766 312/815/768 316/816/772 315/812/771
f 313/627/770 314/628/769 318/629/773 317/630/774
f 314/628/769 315/631/771 319/632/775 318/629/773
f 315/631/771 316/633/772 320/634/776 319/632/775
s 26
f 317/831/777 318/832/778 322/833/779 321/834/780
f 318/832/778 319/835/781 323/836/782 322/833/779
f 319/835/781 320/839/783 324/840/784 323/836/782
f 321/834/780 322/833/779 326/837/785 325/838/786
s off
f 361/842/787 362/841/788 363/848/789 364/843/790
s 26
f 323/836/782 324/840/784 328/846/791 327/847/792
f 325/838/786 326/837/785 330/844/793 329/845/794
f 326/837/785 327/847/792 331/849/795 330/844/793
f 327/847/792 328/846/791 332/850/796 331/849/795
s 27
f 329/635/797 330/636/798 334/637/799 333/638/800
f 330/636/798 331/639/801 335/640/802 334/637/799
f 331/639/801 332/641/803 336/642/804 335/640/802
f 333/822/800 334/825/799 338/826/805 337/821/806
f 334/825/799 335/829/802 339/830/807 338/826/805
f 335/829/802 336/828/804 340/827/808 339/830/807
f 337/651/806 338/647/805 342/643/809 341/652/810
f 338/647/805 339/648/807 343/644/811 342/643/809
f 339/648/807 340/649/808 344/650/812 343/644/811
s 28
f 341/483/813 342/484/814 346/480/815 345/479/816
f 342/643/814 343/644/817 347/645/818 346/646/815
f 343/495/817 344/496/819 348/492/820 347/491/818
f 345/479/816 346/480/815 350/481/821 349/482/822
f 346/851/815 347/852/818 351/853/823 350/854/821
f 347/491/818 348/492/820 352/493/824 351/494/823
f 349/482/822 350/481/821 306/485/825 305/486/826
f 350/653/821 351/654/823 307/655/827 306/656/825
f 351/494/823 352/493/824 308/499/828 307/500/827
s 29
f 348/492/829 344/496/830 340/501/831 353/497/832
f 352/493/833 348/492/829 353/497/832 354/498/834
f 308/499/835 352/493/833 354/498/834 312/502/836
f 353/823/832 340/827/831 336/828/837 355/824/838
f 354/819/834 353/823/832 355/824/838 356/820/839
f 312/815/836 354/819/834 356/820/839 316/816/840
f 355/503/838 336/504/837 332/505/841 328/506/842
f 356/507/839 355/503/838 328/506/842 324/508/843
f 316/509/840 356/507/839 324/508/843 320/510/844
s 30
f 341/483/845 345/479/846 357/488/847 337/489/848
f 345/479/846 349/482/849 358/487/850 357/488/847
f 349/482/849 305/486/851 309/490/852 358/487/850
f 337/821/848 357/817/847 359/818/853 333/822/854
f 357/817/847 358/813/850 360/814/855 359/818/853
f 358/813/850 309/807/852 313/810/856 360/814/855
f 333/511/854 359/512/853 325/513/857 329/514/858
f 359/512/853 360/515/855 321/516/859 325/513/857
f 360/515/855 313/517/856 317/518/860 321/516/859
s off
f 322/833/861 323/836/862 362/841/863 361/842/864
f 323/836/865 327/847/866 363/848/867 362/841/868
f 327/847/869 326/837/870 364/843/871 363/848/872
f 326/837/873 322/833/874 361/842/875 364/843/876
